<?xml version="1.0" encoding="UTF-8"?>
<!DOCTYPE svg PUBLIC "-//W3C//DTD SVG 1.1//EN" "http://www.w3.org/Graphics/SVG/1.1/DTD/svg11.dtd">
<svg xmlns="http://www.w3.org/2000/svg" version="1.1" width="2048px" height="2048px" style="shape-rendering:geometricPrecision; text-rendering:geometricPrecision; image-rendering:optimizeQuality; fill-rule:evenodd; clip-rule:evenodd" xmlns:xlink="http://www.w3.org/1999/xlink">
<g><path style="opacity:1" fill="#fefefe" d="M -0.5,-0.5 C 682.167,-0.5 1364.83,-0.5 2047.5,-0.5C 2047.5,682.167 2047.5,1364.83 2047.5,2047.5C 1364.83,2047.5 682.167,2047.5 -0.5,2047.5C -0.5,1364.83 -0.5,682.167 -0.5,-0.5 Z"/></g>
<g><path style="opacity:1" fill="#f1fefc" d="M 1259.5,505.5 C 1194.5,505.5 1129.5,505.5 1064.5,505.5C 1062.56,512.891 1060.89,520.225 1059.5,527.5C 1059.32,522.961 1059.66,518.461 1060.5,514C 1057.85,511.68 1057.85,509.347 1060.5,507C 1059.43,506.261 1058.76,505.261 1058.5,504C 1059.82,501.346 1061.82,499.346 1064.5,498C 1063.35,497.086 1063.51,496.253 1065,495.5C 1065.48,496.448 1065.65,497.448 1065.5,498.5C 1067.5,498.167 1069.5,497.833 1071.5,497.5C 1071.5,498.5 1071.5,499.5 1071.5,500.5C 1125.83,501.261 1180.16,501.761 1234.5,502C 1207.89,503.154 1181.23,503.654 1154.5,503.5C 1128.46,503.496 1102.46,503.162 1076.5,502.5C 1074.88,503.154 1073.22,503.654 1071.5,504C 1134.33,504.167 1197,504.667 1259.5,505.5 Z"/></g>
<g><path style="opacity:1" fill="#f4fef8" d="M 952.5,511.5 C 952.5,510.833 952.5,510.167 952.5,509.5C 953.391,508.739 954.058,507.739 954.5,506.5C 770.501,505.5 586.501,505.167 402.5,505.5C 403.116,503.583 404.45,502.416 406.5,502C 590.891,501.737 775.224,501.571 959.5,501.5C 959.5,502.833 959.5,504.167 959.5,505.5C 958.5,505.5 957.5,505.5 956.5,505.5C 956.617,507.484 955.95,509.15 954.5,510.5C 956.048,510.212 957.715,510.212 959.5,510.5C 957.667,512.166 956.334,514.166 955.5,516.5C 954.065,515.053 953.065,513.386 952.5,511.5 Z"/></g>
<g><path style="opacity:1" fill="#f7fefa" d="M 1679.5,505.5 C 1678.17,505.5 1676.83,505.5 1675.5,505.5C 1609.83,505.5 1544.17,505.5 1478.5,505.5C 1477.5,505.414 1476.67,505.748 1476,506.5C 1474.89,504.963 1473.39,504.297 1471.5,504.5C 1471.5,503.5 1471.5,502.5 1471.5,501.5C 1475.88,501.637 1480.21,501.804 1484.5,502C 1480.54,501.019 1477.2,499.019 1474.5,496C 1475,495.833 1475.5,495.667 1476,495.5C 1478.92,497.759 1482.08,498.426 1485.5,497.5C 1539.41,499.316 1593.41,500.149 1647.5,500C 1643.83,500.333 1640.17,500.667 1636.5,501C 1649.55,501.185 1662.55,501.685 1675.5,502.5C 1676.74,501.754 1678.07,501.421 1679.5,501.5C 1679.5,502.833 1679.5,504.167 1679.5,505.5 Z"/></g>
<g><path style="opacity:1" fill="#61b5e3" d="M 402.5,505.5 C 586.501,505.167 770.501,505.5 954.5,506.5C 954.058,507.739 953.391,508.739 952.5,509.5C 952.5,508.5 952.5,507.5 952.5,506.5C 769.5,506.5 586.5,506.5 403.5,506.5C 403.5,508.167 403.5,509.833 403.5,511.5C 402.275,510.063 401.275,508.396 400.5,506.5C 400.957,505.702 401.624,505.369 402.5,505.5 Z"/></g>
<g><path style="opacity:1" fill="#60b3e6" d="M 1478.5,505.5 C 1544.17,505.5 1609.83,505.5 1675.5,505.5C 1675.5,505.833 1675.5,506.167 1675.5,506.5C 1610,506.168 1544.66,506.501 1479.5,507.5C 1478.66,507.158 1478.33,506.492 1478.5,505.5 Z"/></g>
<g><path style="opacity:1" fill="#1699e0" d="M 952.5,509.5 C 952.5,510.167 952.5,510.833 952.5,511.5C 943.942,525.058 934.609,538.058 924.5,550.5C 925.134,547.358 926.467,544.524 928.5,542C 927.591,540.211 927.424,538.377 928,536.5C 931.428,536.704 934.428,535.371 937,532.5C 939.027,529.779 940.527,526.779 941.5,523.5C 941.291,522.914 940.957,522.414 940.5,522C 944.757,521.336 946.424,518.836 945.5,514.5C 946.822,514.67 947.989,514.337 949,513.5C 949.121,511.273 949.954,509.44 951.5,508C 769.167,507.5 586.834,507.333 404.5,507.5C 406.041,511.455 407.374,515.455 408.5,519.5C 406.847,516.869 405.181,514.203 403.5,511.5C 403.5,509.833 403.5,508.167 403.5,506.5C 586.5,506.5 769.5,506.5 952.5,506.5C 952.5,507.5 952.5,508.5 952.5,509.5 Z"/></g>
<g><path style="opacity:1" fill="#0ea2f2" d="M 1259.5,505.5 C 1260.04,505.56 1260.38,505.893 1260.5,506.5C 1258.29,511.795 1256.29,517.129 1254.5,522.5C 1253.83,523.5 1253.17,524.5 1252.5,525.5C 1253.88,520.99 1254.88,516.323 1255.5,511.5C 1252.67,511.162 1250.51,512.162 1249,514.5C 1248.31,512.08 1248.81,509.913 1250.5,508C 1244.42,507.787 1238.42,508.453 1232.5,510C 1178.67,510.832 1125,510.665 1071.5,509.5C 1283.5,509.5 1283.5,508.833 1071.5,507.5C 1134.33,506.833 1197,506.167 1259.5,505.5 Z"/></g>
<g><path style="opacity:1" fill="#31a5e9" d="M 1259.5,505.5 C 1197,506.167 1134.33,506.833 1071.5,507.5C 1283.5,508.833 1283.5,509.5 1071.5,509.5C 1069.5,509.5 1067.5,509.5 1065.5,509.5C 1065.15,513.064 1065.82,516.398 1067.5,519.5C 1068.09,519.291 1068.59,518.957 1069,518.5C 1070.15,535.567 1068.65,536.234 1064.5,520.5C 1063.78,522.686 1063.11,524.853 1062.5,527C 1062.83,527.333 1063.17,527.667 1063.5,528C 1062.65,532.092 1061.99,536.258 1061.5,540.5C 1061.86,542.693 1062.86,544.527 1064.5,546C 1063,547.491 1062.16,549.324 1062,551.5C 1061.71,549.956 1061.04,548.623 1060,547.5C 1059.67,548.167 1059.33,548.833 1059,549.5C 1056.78,578.233 1057.11,606.9 1060,635.5C 1060.67,634.167 1061.33,632.833 1062,631.5C 1061.39,642.137 1061.55,652.804 1062.5,663.5C 1058.71,647.863 1056.54,631.863 1056,615.5C 1055.5,600.504 1055.33,585.504 1055.5,570.5C 1056.45,556.129 1057.78,541.795 1059.5,527.5C 1060.89,520.225 1062.56,512.891 1064.5,505.5C 1129.5,505.5 1194.5,505.5 1259.5,505.5 Z"/></g>
<g><path style="opacity:1" fill="#139feb" d="M 1675.5,506.5 C 1676.45,507.919 1676.78,509.585 1676.5,511.5C 1674.82,510.817 1674.16,509.483 1674.5,507.5C 1612.17,507.333 1549.83,507.5 1487.5,508C 1540.83,508.333 1594.17,508.667 1647.5,509C 1593.83,509.667 1540.17,509.667 1486.5,509C 1485.07,507.56 1483.4,507.226 1481.5,508C 1484.12,512.023 1486.62,516.19 1489,520.5C 1489.69,524.321 1490.69,527.988 1492,531.5C 1492.81,529.564 1493.31,527.564 1493.5,525.5C 1494.83,525.5 1496.17,525.5 1497.5,525.5C 1497.33,529.846 1497.5,534.179 1498,538.5C 1500.92,545.255 1501.75,552.255 1500.5,559.5C 1498.92,551.184 1496.42,543.184 1493,535.5C 1492.5,538.146 1492.34,540.813 1492.5,543.5C 1492.17,543.5 1491.83,543.5 1491.5,543.5C 1489.38,534.866 1486.88,526.199 1484,517.5C 1482.21,514.264 1480.71,510.93 1479.5,507.5C 1544.66,506.501 1610,506.168 1675.5,506.5 Z"/></g>
<g><path style="opacity:1" fill="#09a2fa" d="M 924.5,550.5 C 921.198,555.403 917.198,559.736 912.5,563.5C 908.387,562.604 904.387,562.771 900.5,564C 899.205,566.758 897.539,569.258 895.5,571.5C 896.325,572.386 897.325,572.719 898.5,572.5C 898.5,573.5 898.5,574.5 898.5,575.5C 897.5,575.5 896.5,575.5 895.5,575.5C 895.657,576.873 895.49,578.207 895,579.5C 891.978,578.669 890.478,580.002 890.5,583.5C 889.178,583.33 888.011,583.663 887,584.5C 884.14,582.867 883.973,581.2 886.5,579.5C 887.192,580.025 887.692,580.692 888,581.5C 891.09,578.252 890.423,575.585 886,573.5C 884.133,574.377 882.966,575.877 882.5,578C 881.552,578.483 880.552,578.649 879.5,578.5C 878.425,582.938 880.092,584.938 884.5,584.5C 884.91,589.303 883.41,590.303 880,587.5C 879.505,589.473 879.338,591.473 879.5,593.5C 874.167,597.833 868.833,602.167 863.5,606.5C 853.492,612.17 843.492,617.837 833.5,623.5C 832.833,623.5 832.167,623.5 831.5,623.5C 826.583,624.517 821.75,625.85 817,627.5C 813.934,624.77 811.434,625.27 809.5,629C 806.182,629.879 802.848,630.713 799.5,631.5C 795.094,635.678 790.428,639.345 785.5,642.5C 779.009,645.078 772.343,647.078 765.5,648.5C 756.415,649.884 747.415,651.717 738.5,654C 732.213,655.107 725.88,655.607 719.5,655.5C 688.829,658.072 658.163,658.072 627.5,655.5C 625.553,654.85 623.887,653.683 622.5,652C 616.5,651.667 610.5,651.333 604.5,651C 604.043,650.586 603.709,650.086 603.5,649.5C 604.908,648.757 606.241,647.923 607.5,647C 606.833,646.833 606.167,646.667 605.5,646.5C 600.264,648.522 594.931,648.855 589.5,647.5C 586.724,645.721 587.057,644.721 590.5,644.5C 594.724,644.134 598.724,643.134 602.5,641.5C 605.038,642.846 606.705,642.013 607.5,639C 605.825,635.791 604.158,635.957 602.5,639.5C 601.808,638.975 601.308,638.308 601,637.5C 600.5,638.667 599.667,639.5 598.5,640C 591.754,640.121 585.087,640.788 578.5,642C 579.833,642.333 581.167,642.667 582.5,643C 580.667,643.167 578.833,643.333 577,643.5C 571.212,641.861 565.379,640.527 559.5,639.5C 541.903,634.37 525.237,627.037 509.5,617.5C 508.215,614.386 505.881,612.553 502.5,612C 503.833,610.333 505.167,608.667 506.5,607C 504.485,604.368 502.485,604.202 500.5,606.5C 498.604,607.466 496.604,607.799 494.5,607.5C 495.228,602.726 495.561,598.06 495.5,593.5C 494.5,593.5 493.5,593.5 492.5,593.5C 492.672,595.492 492.005,597.158 490.5,598.5C 491.744,600.133 491.244,601.133 489,601.5C 485.459,600.226 482.292,598.56 479.5,596.5C 479.5,595.5 479.5,594.5 479.5,593.5C 477.738,593.643 476.071,593.309 474.5,592.5C 470.117,587.901 465.284,583.901 460,580.5C 458.346,577.725 458.679,575.058 461,572.5C 462.417,568.535 461.084,566.201 457,565.5C 456.882,568.371 456.216,571.038 455,573.5C 454.676,571.431 453.842,571.098 452.5,572.5C 450.393,570.47 448.393,568.303 446.5,566C 447.866,563.562 447.366,563.062 445,564.5C 441.618,563.55 441.118,562.05 443.5,560C 442.175,560.148 441.008,559.982 440,559.5C 439.006,552.247 440.506,551.914 444.5,558.5C 445.325,559.386 446.325,559.719 447.5,559.5C 446.804,556.68 445.804,554.013 444.5,551.5C 445.428,549.106 445.428,546.773 444.5,544.5C 445.025,543.808 445.692,543.308 446.5,543C 445.874,542.25 445.374,541.416 445,540.5C 444.092,542.439 442.592,543.439 440.5,543.5C 440.534,546.199 439.867,548.699 438.5,551C 436.421,551.808 434.421,551.641 432.5,550.5C 429.631,548.302 427.631,545.469 426.5,542C 427.716,540.26 429.382,539.26 431.5,539C 427.537,535.117 427.87,531.451 432.5,528C 430.741,527.202 429.074,527.369 427.5,528.5C 426.201,531.395 424.535,534.062 422.5,536.5C 421.042,533.238 419.375,530.238 417.5,527.5C 416.5,527.5 415.5,527.5 414.5,527.5C 414.007,525.194 413.674,522.861 413.5,520.5C 411.784,520.371 410.117,520.038 408.5,519.5C 407.374,515.455 406.041,511.455 404.5,507.5C 586.834,507.333 769.167,507.5 951.5,508C 949.954,509.44 949.121,511.273 949,513.5C 947.989,514.337 946.822,514.67 945.5,514.5C 946.424,518.836 944.757,521.336 940.5,522C 940.957,522.414 941.291,522.914 941.5,523.5C 940.527,526.779 939.027,529.779 937,532.5C 934.428,535.371 931.428,536.704 928,536.5C 927.424,538.377 927.591,540.211 928.5,542C 926.467,544.524 925.134,547.358 924.5,550.5 Z"/></g>
<g><path style="opacity:1" fill="#09a2fa" d="M 1252.5,525.5 C 1250.96,533.226 1249.29,540.892 1247.5,548.5C 1245.98,548.511 1244.82,549.177 1244,550.5C 1243.04,569.498 1242.21,588.498 1241.5,607.5C 1240.5,607.5 1239.5,607.5 1238.5,607.5C 1238.8,612.762 1238.47,617.928 1237.5,623C 1238.79,623.49 1240.13,623.657 1241.5,623.5C 1241.23,625.958 1242.23,627.625 1244.5,628.5C 1245.32,631.785 1245.82,635.118 1246,638.5C 1247.6,640.891 1249.1,643.224 1250.5,645.5C 1250.5,646.167 1250.5,646.833 1250.5,647.5C 1252.79,657.388 1255.62,667.054 1259,676.5C 1260.06,678.795 1261.56,679.461 1263.5,678.5C 1269.07,688.716 1275.73,698.049 1283.5,706.5C 1294.3,718.265 1307.3,726.931 1322.5,732.5C 1322.41,733.496 1322.75,734.329 1323.5,735C 1327.09,737.455 1331.09,738.788 1335.5,739C 1349.92,741.48 1364.26,741.98 1378.5,740.5C 1396.18,738.715 1412.85,733.715 1428.5,725.5C 1429.55,724.452 1430.55,723.452 1431.5,722.5C 1448.35,713.649 1461.69,700.982 1471.5,684.5C 1474.86,683.473 1476.52,681.14 1476.5,677.5C 1477.5,677.5 1478.5,677.5 1479.5,677.5C 1479.78,673.268 1480.94,669.268 1483,665.5C 1483.75,664.874 1484.58,664.374 1485.5,664C 1484.98,663.439 1484.64,662.772 1484.5,662C 1486.35,658.778 1487.35,655.278 1487.5,651.5C 1488.76,647.626 1489.43,643.626 1489.5,639.5C 1491.72,632.284 1493.39,624.951 1494.5,617.5C 1495.22,617.082 1495.72,616.416 1496,615.5C 1496.67,595.5 1496.67,575.5 1496,555.5C 1495.26,551.25 1494.09,547.25 1492.5,543.5C 1492.34,540.813 1492.5,538.146 1493,535.5C 1496.42,543.184 1498.92,551.184 1500.5,559.5C 1501.75,552.255 1500.92,545.255 1498,538.5C 1497.5,534.179 1497.33,529.846 1497.5,525.5C 1496.17,525.5 1494.83,525.5 1493.5,525.5C 1493.31,527.564 1492.81,529.564 1492,531.5C 1490.69,527.988 1489.69,524.321 1489,520.5C 1486.62,516.19 1484.12,512.023 1481.5,508C 1483.4,507.226 1485.07,507.56 1486.5,509C 1540.17,509.667 1593.83,509.667 1647.5,509C 1594.17,508.667 1540.83,508.333 1487.5,508C 1549.83,507.5 1612.17,507.333 1674.5,507.5C 1674.16,509.483 1674.82,510.817 1676.5,511.5C 1677.32,517.543 1677.32,523.543 1676.5,529.5C 1678.53,538.367 1679.7,547.367 1680,556.5C 1680.33,554.167 1680.67,551.833 1681,549.5C 1683.12,574.155 1683.46,598.822 1682,623.5C 1681.7,628.105 1680.86,632.605 1679.5,637C 1680.69,641.499 1680.69,645.999 1679.5,650.5C 1679.5,652.167 1679.5,653.833 1679.5,655.5C 1677.93,655.937 1676.76,656.937 1676,658.5C 1674.4,665.072 1673.4,671.739 1673,678.5C 1670.7,684.051 1669.2,689.717 1668.5,695.5C 1667.5,695.5 1666.5,695.5 1665.5,695.5C 1665.41,699.857 1665.08,704.19 1664.5,708.5C 1657.41,729.677 1647.41,749.344 1634.5,767.5C 1633.5,767.5 1632.5,767.5 1631.5,767.5C 1630.17,770.5 1628.83,773.5 1627.5,776.5C 1625.9,777.362 1624.24,777.862 1622.5,778C 1621.59,776.301 1621.26,774.467 1621.5,772.5C 1620.5,772.5 1619.5,772.5 1618.5,772.5C 1618.5,774.5 1618.5,776.5 1618.5,778.5C 1622.83,778.252 1624.16,779.918 1622.5,783.5C 1621.18,783.33 1620.01,783.663 1619,784.5C 1616.17,788.738 1613.51,793.072 1611,797.5C 1609.63,796.138 1608.47,794.305 1607.5,792C 1607.44,790.289 1608.11,788.956 1609.5,788C 1606.07,787.884 1603.07,786.717 1600.5,784.5C 1599.17,786.167 1599.17,787.833 1600.5,789.5C 1605.04,792.263 1605.04,795.43 1600.5,799C 1595.04,801.281 1589.38,802.781 1583.5,803.5C 1583.33,804.822 1583.66,805.989 1584.5,807C 1586.83,807.333 1589.17,807.667 1591.5,808C 1592.83,809 1592.83,810 1591.5,811C 1592.17,811.333 1592.83,811.667 1593.5,812C 1591.59,815.371 1589.59,818.538 1587.5,821.5C 1585.41,821.55 1584.08,820.55 1583.5,818.5C 1587.61,815.418 1587.44,812.752 1583,810.5C 1581.66,813.022 1580.83,815.689 1580.5,818.5C 1576.21,817.982 1572.87,819.482 1570.5,823C 1569.55,823.483 1568.55,823.649 1567.5,823.5C 1567.5,825.833 1567.5,828.167 1567.5,830.5C 1561.24,831.465 1560.91,833.632 1566.5,837C 1565.05,838.117 1563.38,838.784 1561.5,839C 1560.17,839.667 1560.17,840.333 1561.5,841C 1559.94,841.318 1558.77,842.151 1558,843.5C 1556.25,842.67 1554.59,841.67 1553,840.5C 1552.5,840.833 1552,841.167 1551.5,841.5C 1552.35,842.845 1553.51,843.845 1555,844.5C 1555.48,845.448 1555.65,846.448 1555.5,847.5C 1553.65,848.593 1551.98,849.926 1550.5,851.5C 1535.02,860.077 1519.35,868.41 1503.5,876.5C 1496.1,878.479 1488.77,880.646 1481.5,883C 1478.05,884.509 1474.72,886.009 1471.5,887.5C 1466.01,888.22 1460.67,889.553 1455.5,891.5C 1446.15,893.171 1436.82,894.837 1427.5,896.5C 1418.15,896.836 1408.81,897.502 1399.5,898.5C 1396.41,898.522 1393.74,899.188 1391.5,900.5C 1375.5,901.833 1359.5,901.833 1343.5,900.5C 1330.52,898.328 1317.18,896.661 1303.5,895.5C 1302.5,895.5 1301.5,895.5 1300.5,895.5C 1265.7,889.099 1232.7,877.599 1201.5,861C 1195.26,857.057 1189.26,852.891 1183.5,848.5C 1183.39,847.883 1183.06,847.383 1182.5,847C 1187.51,844.668 1187.68,842.168 1183,839.5C 1181.19,840.609 1180.35,839.942 1180.5,837.5C 1182.17,837.5 1183.83,837.5 1185.5,837.5C 1185.67,836.178 1185.34,835.011 1184.5,834C 1180.11,833.317 1175.78,832.484 1171.5,831.5C 1172.26,835.138 1170.93,836.638 1167.5,836C 1165.43,834.021 1163.27,832.188 1161,830.5C 1160.6,828.04 1159.44,826.04 1157.5,824.5C 1151.64,819.64 1145.64,814.807 1139.5,810C 1138.26,809.209 1136.92,808.709 1135.5,808.5C 1135.5,808.167 1135.5,807.833 1135.5,807.5C 1135.59,802.084 1133.09,798.417 1128,796.5C 1127.67,795.167 1127.33,793.833 1127,792.5C 1124.56,791.645 1122.06,790.979 1119.5,790.5C 1118.07,787.953 1116.4,785.619 1114.5,783.5C 1114.59,781.323 1115.25,779.323 1116.5,777.5C 1114.83,777.613 1112.99,777.279 1111,776.5C 1110.5,774.527 1110.34,772.527 1110.5,770.5C 1114.21,770.53 1114.88,769.53 1112.5,767.5C 1110.67,768.821 1108.67,769.821 1106.5,770.5C 1105.73,767.639 1105.4,764.805 1105.5,762C 1104.52,760.946 1103.35,760.446 1102,760.5C 1101.32,755.73 1098.82,752.73 1094.5,751.5C 1083.18,731.22 1074.18,709.886 1067.5,687.5C 1065.58,679.571 1063.91,671.571 1062.5,663.5C 1061.55,652.804 1061.39,642.137 1062,631.5C 1061.33,632.833 1060.67,634.167 1060,635.5C 1057.11,606.9 1056.78,578.233 1059,549.5C 1059.33,548.833 1059.67,548.167 1060,547.5C 1061.04,548.623 1061.71,549.956 1062,551.5C 1062.16,549.324 1063,547.491 1064.5,546C 1062.86,544.527 1061.86,542.693 1061.5,540.5C 1061.99,536.258 1062.65,532.092 1063.5,528C 1063.17,527.667 1062.83,527.333 1062.5,527C 1063.11,524.853 1063.78,522.686 1064.5,520.5C 1068.65,536.234 1070.15,535.567 1069,518.5C 1068.59,518.957 1068.09,519.291 1067.5,519.5C 1065.82,516.398 1065.15,513.064 1065.5,509.5C 1067.5,509.5 1069.5,509.5 1071.5,509.5C 1125,510.665 1178.67,510.832 1232.5,510C 1238.42,508.453 1244.42,507.787 1250.5,508C 1248.81,509.913 1248.31,512.08 1249,514.5C 1250.51,512.162 1252.67,511.162 1255.5,511.5C 1254.88,516.323 1253.88,520.99 1252.5,525.5 Z"/></g>
<g><path style="opacity:1" fill="#3ca5e6" d="M 1676.5,511.5 C 1682.44,536.338 1685.44,561.672 1685.5,587.5C 1685.24,608.83 1683.24,629.83 1679.5,650.5C 1680.69,645.999 1680.69,641.499 1679.5,637C 1680.86,632.605 1681.7,628.105 1682,623.5C 1683.46,598.822 1683.12,574.155 1681,549.5C 1680.67,551.833 1680.33,554.167 1680,556.5C 1679.7,547.367 1678.53,538.367 1676.5,529.5C 1677.32,523.543 1677.32,517.543 1676.5,511.5 Z"/></g>
<g><path style="opacity:1" fill="#21a2ed" d="M 408.5,519.5 C 410.117,520.038 411.784,520.371 413.5,520.5C 413.674,522.861 414.007,525.194 414.5,527.5C 415.5,527.5 416.5,527.5 417.5,527.5C 419.375,530.238 421.042,533.238 422.5,536.5C 424.535,534.062 426.201,531.395 427.5,528.5C 429.074,527.369 430.741,527.202 432.5,528C 427.87,531.451 427.537,535.117 431.5,539C 429.382,539.26 427.716,540.26 426.5,542C 427.631,545.469 429.631,548.302 432.5,550.5C 434.421,551.641 436.421,551.808 438.5,551C 439.867,548.699 440.534,546.199 440.5,543.5C 442.592,543.439 444.092,542.439 445,540.5C 445.374,541.416 445.874,542.25 446.5,543C 445.692,543.308 445.025,543.808 444.5,544.5C 445.428,546.773 445.428,549.106 444.5,551.5C 445.804,554.013 446.804,556.68 447.5,559.5C 446.325,559.719 445.325,559.386 444.5,558.5C 440.506,551.914 439.006,552.247 440,559.5C 441.008,559.982 442.175,560.148 443.5,560C 441.118,562.05 441.618,563.55 445,564.5C 447.366,563.062 447.866,563.562 446.5,566C 448.393,568.303 450.393,570.47 452.5,572.5C 453.842,571.098 454.676,571.431 455,573.5C 456.216,571.038 456.882,568.371 457,565.5C 461.084,566.201 462.417,568.535 461,572.5C 458.679,575.058 458.346,577.725 460,580.5C 465.284,583.901 470.117,587.901 474.5,592.5C 476.071,593.309 477.738,593.643 479.5,593.5C 479.5,594.5 479.5,595.5 479.5,596.5C 482.292,598.56 485.459,600.226 489,601.5C 491.244,601.133 491.744,600.133 490.5,598.5C 492.005,597.158 492.672,595.492 492.5,593.5C 493.5,593.5 494.5,593.5 495.5,593.5C 495.561,598.06 495.228,602.726 494.5,607.5C 496.604,607.799 498.604,607.466 500.5,606.5C 502.485,604.202 504.485,604.368 506.5,607C 505.167,608.667 503.833,610.333 502.5,612C 505.881,612.553 508.215,614.386 509.5,617.5C 467.478,593.617 433.812,560.95 408.5,519.5 Z"/></g>
<g><path style="opacity:1" fill="#1ba4ed" d="M 912.5,563.5 C 902.774,574.892 891.774,584.892 879.5,593.5C 879.338,591.473 879.505,589.473 880,587.5C 883.41,590.303 884.91,589.303 884.5,584.5C 880.092,584.938 878.425,582.938 879.5,578.5C 880.552,578.649 881.552,578.483 882.5,578C 882.966,575.877 884.133,574.377 886,573.5C 890.423,575.585 891.09,578.252 888,581.5C 887.692,580.692 887.192,580.025 886.5,579.5C 883.973,581.2 884.14,582.867 887,584.5C 888.011,583.663 889.178,583.33 890.5,583.5C 890.478,580.002 891.978,578.669 895,579.5C 895.49,578.207 895.657,576.873 895.5,575.5C 896.5,575.5 897.5,575.5 898.5,575.5C 898.5,574.5 898.5,573.5 898.5,572.5C 897.325,572.719 896.325,572.386 895.5,571.5C 897.539,569.258 899.205,566.758 900.5,564C 904.387,562.771 908.387,562.604 912.5,563.5 Z"/></g>
<g><path style="opacity:1" fill="#e2fbfd" d="M 1675.5,506.5 C 1675.5,506.167 1675.5,505.833 1675.5,505.5C 1676.83,505.5 1678.17,505.5 1679.5,505.5C 1678.03,510.676 1678.53,515.676 1681,520.5C 1682.2,531.184 1683.54,541.851 1685,552.5C 1685.2,554.402 1686.03,555.902 1687.5,557C 1687.01,581.301 1686.01,605.634 1684.5,630C 1684.58,632.708 1684.91,635.375 1685.5,638C 1684.66,639.171 1683.83,640.338 1683,641.5C 1682.5,645 1682,648.5 1681.5,652C 1681.39,653.681 1680.73,654.848 1679.5,655.5C 1679.5,653.833 1679.5,652.167 1679.5,650.5C 1683.24,629.83 1685.24,608.83 1685.5,587.5C 1685.44,561.672 1682.44,536.338 1676.5,511.5C 1676.78,509.585 1676.45,507.919 1675.5,506.5 Z"/></g>
<g><path style="opacity:1" fill="#e0f7f9" d="M 1055.5,570.5 C 1055.33,585.504 1055.5,600.504 1056,615.5C 1056.54,631.863 1058.71,647.863 1062.5,663.5C 1063.91,671.571 1065.58,679.571 1067.5,687.5C 1066.07,687.119 1065.24,686.119 1065,684.5C 1063.74,678.878 1062.74,673.211 1062,667.5C 1061.78,668.938 1061.28,670.271 1060.5,671.5C 1059.91,671.291 1059.41,670.957 1059,670.5C 1058.36,664.704 1057.19,659.037 1055.5,653.5C 1056.08,650.198 1056.41,646.865 1056.5,643.5C 1054.07,626.36 1052.73,609.027 1052.5,591.5C 1052.83,586.167 1053.17,580.833 1053.5,575.5C 1054.17,573.709 1054.84,572.042 1055.5,570.5 Z"/></g>
<g><path style="opacity:1" fill="#e0fcfe" d="M 1254.5,522.5 C 1254.1,526.375 1253.44,530.208 1252.5,534C 1254.58,541.48 1254.91,542.98 1253.5,538.5C 1252.5,538.5 1251.5,538.5 1250.5,538.5C 1249.31,552.436 1247.65,566.27 1245.5,580C 1246.18,595.503 1246.85,611.003 1247.5,626.5C 1243.51,600.634 1243.51,574.634 1247.5,548.5C 1249.29,540.892 1250.96,533.226 1252.5,525.5C 1253.17,524.5 1253.83,523.5 1254.5,522.5 Z"/></g>
<g><path style="opacity:1" fill="#cff7fc" d="M 863.5,606.5 C 860.326,609.825 856.659,612.659 852.5,615C 849.833,616 847.167,617 844.5,618C 841.656,621.422 837.989,623.255 833.5,623.5C 843.492,617.837 853.492,612.17 863.5,606.5 Z"/></g>
<g><path style="opacity:1" fill="#3ea8df" d="M 1491.5,543.5 C 1491.83,543.5 1492.17,543.5 1492.5,543.5C 1494.09,547.25 1495.26,551.25 1496,555.5C 1496.67,575.5 1496.67,595.5 1496,615.5C 1495.72,616.416 1495.22,617.082 1494.5,617.5C 1495.6,599.187 1495.77,580.854 1495,562.5C 1493.91,556.692 1492.74,551.025 1491.5,545.5C 1491.5,544.833 1491.5,544.167 1491.5,543.5 Z"/></g>
<g><path style="opacity:1" fill="#d4fafd" d="M 1491.5,545.5 C 1492.74,551.025 1493.91,556.692 1495,562.5C 1495.77,580.854 1495.6,599.187 1494.5,617.5C 1493.39,624.951 1491.72,632.284 1489.5,639.5C 1491.32,628.899 1492.82,618.232 1494,607.5C 1494.67,595.167 1494.67,582.833 1494,570.5C 1493.36,567.723 1492.52,565.056 1491.5,562.5C 1492.1,556.873 1492.1,551.206 1491.5,545.5 Z"/></g>
<g><path style="opacity:1" fill="#2da2e9" d="M 1247.5,548.5 C 1243.51,574.634 1243.51,600.634 1247.5,626.5C 1247.58,632.988 1248.58,639.321 1250.5,645.5C 1249.1,643.224 1247.6,640.891 1246,638.5C 1245.82,635.118 1245.32,631.785 1244.5,628.5C 1242.23,627.625 1241.23,625.958 1241.5,623.5C 1240.13,623.657 1238.79,623.49 1237.5,623C 1238.47,617.928 1238.8,612.762 1238.5,607.5C 1239.5,607.5 1240.5,607.5 1241.5,607.5C 1242.21,588.498 1243.04,569.498 1244,550.5C 1244.82,549.177 1245.98,548.511 1247.5,548.5 Z"/></g>
<g><path style="opacity:1" fill="#28a1e5" d="M 831.5,623.5 C 817.062,631.764 801.729,638.097 785.5,642.5C 790.428,639.345 795.094,635.678 799.5,631.5C 802.848,630.713 806.182,629.879 809.5,629C 811.434,625.27 813.934,624.77 817,627.5C 821.75,625.85 826.583,624.517 831.5,623.5 Z"/></g>
<g><path style="opacity:1" fill="#24a2ee" d="M 627.5,655.5 C 603.901,653.599 581.234,648.265 559.5,639.5C 565.379,640.527 571.212,641.861 577,643.5C 578.833,643.333 580.667,643.167 582.5,643C 581.167,642.667 579.833,642.333 578.5,642C 585.087,640.788 591.754,640.121 598.5,640C 599.667,639.5 600.5,638.667 601,637.5C 601.308,638.308 601.808,638.975 602.5,639.5C 604.158,635.957 605.825,635.791 607.5,639C 606.705,642.013 605.038,642.846 602.5,641.5C 598.724,643.134 594.724,644.134 590.5,644.5C 587.057,644.721 586.724,645.721 589.5,647.5C 594.931,648.855 600.264,648.522 605.5,646.5C 606.167,646.667 606.833,646.833 607.5,647C 606.241,647.923 604.908,648.757 603.5,649.5C 603.709,650.086 604.043,650.586 604.5,651C 610.5,651.333 616.5,651.667 622.5,652C 623.887,653.683 625.553,654.85 627.5,655.5 Z"/></g>
<g><path style="opacity:1" fill="#379bd9" d="M 1250.5,647.5 C 1254.21,657.944 1258.55,668.278 1263.5,678.5C 1261.56,679.461 1260.06,678.795 1259,676.5C 1255.62,667.054 1252.79,657.388 1250.5,647.5 Z"/></g>
<g><path style="opacity:1" fill="#41a3de" d="M 627.5,655.5 C 658.163,658.072 688.829,658.072 719.5,655.5C 715.736,656.832 711.736,657.665 707.5,658C 690.183,659.083 672.849,659.583 655.5,659.5C 646.105,658.659 636.772,657.326 627.5,655.5 Z"/></g>
<g><path style="opacity:1" fill="#e1fafd" d="M 765.5,648.5 C 763.268,650.195 760.601,651.362 757.5,652C 745.435,653.822 733.602,656.655 722,660.5C 717.996,658.013 713.829,657.847 709.5,660C 713.567,661.909 713.234,662.742 708.5,662.5C 706.611,662.564 704.944,662.064 703.5,661C 687.328,660.831 671.328,660.331 655.5,659.5C 672.849,659.583 690.183,659.083 707.5,658C 711.736,657.665 715.736,656.832 719.5,655.5C 725.88,655.607 732.213,655.107 738.5,654C 747.415,651.717 756.415,649.884 765.5,648.5 Z"/></g>
<g><path style="opacity:1" fill="#3da3db" d="M 1487.5,651.5 C 1487.35,655.278 1486.35,658.778 1484.5,662C 1484.64,662.772 1484.98,663.439 1485.5,664C 1484.58,664.374 1483.75,664.874 1483,665.5C 1480.94,669.268 1479.78,673.268 1479.5,677.5C 1478.5,677.5 1477.5,677.5 1476.5,677.5C 1476.52,681.14 1474.86,683.473 1471.5,684.5C 1477.65,673.864 1482.99,662.864 1487.5,651.5 Z"/></g>
<g><path style="opacity:1" fill="#2fa2dd" d="M 1679.5,655.5 C 1676.37,673.873 1671.37,691.539 1664.5,708.5C 1665.08,704.19 1665.41,699.857 1665.5,695.5C 1666.5,695.5 1667.5,695.5 1668.5,695.5C 1669.2,689.717 1670.7,684.051 1673,678.5C 1673.4,671.739 1674.4,665.072 1676,658.5C 1676.76,656.937 1677.93,655.937 1679.5,655.5 Z"/></g>
<g><path style="opacity:1" fill="#d5f8fe" d="M 746.5,715.5 C 737.457,714.779 728.457,713.779 719.5,712.5C 715.353,711.675 711.019,711.175 706.5,711C 689.503,710.5 672.503,710.333 655.5,710.5C 672.375,709.071 689.541,707.738 707,706.5C 709.856,706.871 712.689,707.371 715.5,708C 713.5,708.333 711.5,708.667 709.5,709C 709.833,709.333 710.167,709.667 710.5,710C 716.167,710.333 721.833,710.667 727.5,711C 733.972,712.421 740.306,713.921 746.5,715.5 Z"/></g>
<g><path style="opacity:1" fill="#3a9dd5" d="M 655.5,710.5 C 672.503,710.333 689.503,710.5 706.5,711C 711.019,711.175 715.353,711.675 719.5,712.5C 704.665,712.313 689.831,711.98 675,711.5C 657.725,711.695 640.558,712.695 623.5,714.5C 633.884,712.073 644.551,710.74 655.5,710.5 Z"/></g>
<g><path style="opacity:1" fill="#09a2fa" d="M 719.5,712.5 C 727.503,714.744 735.837,716.577 744.5,718C 745.167,719 745.833,720 746.5,721C 748.727,721.121 750.56,721.954 752,723.5C 753.473,721.993 755.307,721.326 757.5,721.5C 766.025,723.223 774.691,724.557 783.5,725.5C 784.588,727 785.921,728.333 787.5,729.5C 786.311,730.429 784.978,730.762 783.5,730.5C 783.5,731.5 783.5,732.5 783.5,733.5C 785.827,733.753 787.827,733.086 789.5,731.5C 792.239,733.231 791.906,734.397 788.5,735C 793.402,736.025 798.069,735.525 802.5,733.5C 809.305,736.1 815.972,738.933 822.5,742C 820.94,744.659 818.607,745.826 815.5,745.5C 815.5,746.833 815.5,748.167 815.5,749.5C 818.599,749.908 820.933,748.741 822.5,746C 825.554,745.179 828.554,745.345 831.5,746.5C 831.167,747.167 830.833,747.833 830.5,748.5C 827.696,749.105 825.029,749.938 822.5,751C 827.04,751.724 831.373,751.224 835.5,749.5C 838.802,749.293 839.802,750.46 838.5,753C 839.112,755.058 840.112,756.891 841.5,758.5C 841.291,759.086 840.957,759.586 840.5,760C 845.031,761.929 849.531,761.762 854,759.5C 854.5,759.833 855,760.167 855.5,760.5C 850.02,764.825 850.854,766.159 858,764.5C 859.668,765.487 860.835,766.487 861.5,767.5C 863.056,766.453 864.723,765.786 866.5,765.5C 866.833,765.5 867.167,765.5 867.5,765.5C 867.343,766.873 867.51,768.207 868,769.5C 872.057,774.03 877.057,777.03 883,778.5C 882.868,782.033 884.535,784.033 888,784.5C 887.29,787.086 888.29,789.086 891,790.5C 891.71,789.027 892.876,788.36 894.5,788.5C 894.318,790.675 893.651,792.675 892.5,794.5C 892.92,797.213 894.087,799.546 896,801.5C 898.493,799.664 901.326,798.664 904.5,798.5C 904.244,800.792 904.577,802.959 905.5,805C 908.625,805.544 911.625,806.377 914.5,807.5C 914.343,808.873 914.51,810.207 915,811.5C 916,812.833 917,812.833 918,811.5C 919.188,812.563 919.688,813.897 919.5,815.5C 920.5,815.5 921.5,815.5 922.5,815.5C 921.321,821.361 919.488,821.694 917,816.5C 915.307,815.816 913.807,814.816 912.5,813.5C 911.417,814.365 911.251,815.365 912,816.5C 913.833,818 915.667,819.5 917.5,821C 916.549,821.718 916.383,822.551 917,823.5C 920.085,822.861 923.585,822.861 927.5,823.5C 927.675,828.186 930.009,831.186 934.5,832.5C 935.728,835.746 937.394,838.746 939.5,841.5C 938.014,843.302 937.014,845.302 936.5,847.5C 938.833,846.833 941.167,846.167 943.5,845.5C 943.34,847.199 943.506,848.866 944,850.5C 946.234,852.53 948.067,854.863 949.5,857.5C 948.792,859.452 947.625,861.119 946,862.5C 944.108,869.383 946.441,874.05 953,876.5C 953.733,880.988 955.733,881.988 959,879.5C 959.273,881.101 959.773,882.601 960.5,884C 959.409,886.064 959.242,888.231 960,890.5C 960.412,888.003 961.578,886.003 963.5,884.5C 963.833,885.333 964.167,886.167 964.5,887C 963.383,889.731 962.717,892.565 962.5,895.5C 963.833,895.5 965.167,895.5 966.5,895.5C 967.616,898.245 968.616,901.078 969.5,904C 968.199,905.939 968.865,907.106 971.5,907.5C 972.429,908.689 972.762,910.022 972.5,911.5C 973.5,911.5 974.5,911.5 975.5,911.5C 976.117,911.611 976.617,911.944 977,912.5C 980.116,922.716 982.616,933.05 984.5,943.5C 986.659,958.779 988.492,974.112 990,989.5C 990.278,990.416 990.778,991.082 991.5,991.5C 991.5,1010.83 991.5,1030.17 991.5,1049.5C 991.5,1051.5 991.5,1053.5 991.5,1055.5C 990.686,1053.37 990.186,1051.04 990,1048.5C 989.929,1052.69 989.262,1056.69 988,1060.5C 987.5,1066.82 987.334,1073.16 987.5,1079.5C 986.325,1079.72 985.325,1079.39 984.5,1078.5C 986.525,1074.07 987.025,1069.4 986,1064.5C 985,1064.5 984,1064.5 983,1064.5C 982.517,1063.55 982.351,1062.55 982.5,1061.5C 978.932,1061.24 977.599,1059.24 978.5,1055.5C 977.5,1055.5 976.5,1055.5 975.5,1055.5C 974.75,1059.74 976.083,1063.07 979.5,1065.5C 978.833,1067.83 978.167,1070.17 977.5,1072.5C 977.833,1072.83 978.167,1073.17 978.5,1073.5C 979.524,1072.15 980.857,1071.48 982.5,1071.5C 982.214,1078.32 980.547,1084.65 977.5,1090.5C 977.556,1091.74 978.056,1092.74 979,1093.5C 979.178,1096.94 979.345,1100.27 979.5,1103.5C 978.715,1106.15 977.215,1106.82 975,1105.5C 974.5,1106 974,1106.5 973.5,1107C 974.973,1107.71 975.64,1108.88 975.5,1110.5C 912.496,1110.83 849.496,1110.5 786.5,1109.5C 788.457,1105.72 789.791,1101.72 790.5,1097.5C 791.412,1092.42 793.079,1087.75 795.5,1083.5C 800.402,1072.19 803.235,1060.19 804,1047.5C 804.828,1032.66 804.661,1017.99 803.5,1003.5C 802.686,994.954 801.353,986.62 799.5,978.5C 797.296,965.751 793.629,953.418 788.5,941.5C 788.796,935.66 786.962,930.66 783,926.5C 782.349,924.765 782.515,923.098 783.5,921.5C 783.167,921.167 782.833,920.833 782.5,920.5C 781.5,921.167 780.5,921.833 779.5,922.5C 778.735,921.388 777.735,920.721 776.5,920.5C 770.899,913.561 764.899,906.894 758.5,900.5C 759.153,899.193 759.82,897.86 760.5,896.5C 754.395,894.369 748.895,891.369 744,887.5C 744.027,885.583 744.861,883.916 746.5,882.5C 743.923,880.432 740.923,879.099 737.5,878.5C 736.987,876.129 736.653,873.796 736.5,871.5C 734.902,870.515 733.235,870.349 731.5,871C 732.423,873.041 732.756,875.208 732.5,877.5C 737.992,879.717 737.658,881.051 731.5,881.5C 731.548,878.708 730.215,876.875 727.5,876C 720.291,875.215 712.957,874.382 705.5,873.5C 704.833,873.5 704.167,873.5 703.5,873.5C 703.5,872.5 703.5,871.5 703.5,870.5C 685.43,868.758 667.43,869.258 649.5,872C 647.563,872.122 646.23,872.955 645.5,874.5C 600.618,888.384 571.951,918.051 559.5,963.5C 558.417,963.539 557.417,963.873 556.5,964.5C 555.637,970.161 554.803,975.828 554,981.5C 553.333,982.167 552.667,982.833 552,983.5C 550.421,1005.33 550.254,1027.16 551.5,1049C 553.043,1057.53 554.543,1066.03 556,1074.5C 556.377,1075.94 557.21,1076.94 558.5,1077.5C 559.434,1078.57 559.768,1079.9 559.5,1081.5C 560.489,1086.46 561.322,1091.46 562,1096.5C 563.333,1097.17 564.333,1098.17 565,1099.5C 565.498,1102.48 565.665,1105.48 565.5,1108.5C 566.675,1108.28 567.675,1108.61 568.5,1109.5C 503.837,1110.5 439.17,1110.83 374.5,1110.5C 374.662,1108.47 374.495,1106.47 374,1104.5C 373.617,1103.94 373.117,1103.61 372.5,1103.5C 371.833,1102.17 371.167,1100.83 370.5,1099.5C 369.827,1092.78 368.827,1086.11 367.5,1079.5C 365.84,1070.25 364.84,1060.92 364.5,1051.5C 364.107,1023.44 365.107,995.44 367.5,967.5C 367.772,959.199 369.106,951.199 371.5,943.5C 374.033,939.397 375.533,934.73 376,929.5C 377,928.167 378,926.833 379,925.5C 381.043,918.274 382.543,910.941 383.5,903.5C 389.87,883.431 398.87,864.764 410.5,847.5C 411.496,847.586 412.329,847.252 413,846.5C 415.729,842.612 418.229,838.612 420.5,834.5C 422.585,832.425 424.419,832.425 426,834.5C 426.5,832.667 427.667,831.5 429.5,831C 425.832,828.275 425.832,825.775 429.5,823.5C 433.982,822.664 436.649,819.664 437.5,814.5C 443.367,815.203 445.533,818.536 444,824.5C 443.626,825.416 443.126,826.25 442.5,827C 439.349,826.988 436.682,827.988 434.5,830C 436.311,829.293 438.311,828.793 440.5,828.5C 440.272,830.355 440.939,831.188 442.5,831C 445.868,828.237 448.535,824.903 450.5,821C 447.468,818.302 444.801,815.302 442.5,812C 444.366,808.612 445.699,808.779 446.5,812.5C 447.672,812.081 448.672,811.415 449.5,810.5C 449.166,808.665 449.166,806.998 449.5,805.5C 451.804,803.569 453.638,801.236 455,798.5C 456.814,799.76 458.647,799.76 460.5,798.5C 459.167,797.833 457.833,797.167 456.5,796.5C 455.674,795.549 455.508,794.549 456,793.5C 457.925,792.12 459.759,790.62 461.5,789C 465.846,789.257 468.68,787.424 470,783.5C 472.644,781.69 475.144,779.69 477.5,777.5C 479.131,779.059 479.964,781.059 480,783.5C 481.171,782.107 482.671,781.273 484.5,781C 485.711,780.107 485.711,779.274 484.5,778.5C 482.929,777.691 481.262,777.357 479.5,777.5C 479.5,776.167 479.5,774.833 479.5,773.5C 481.527,773.662 483.527,773.495 485.5,773C 489.701,766.506 495.701,762.173 503.5,760C 505.028,757.225 507.361,755.392 510.5,754.5C 511.386,753.675 511.719,752.675 511.5,751.5C 511.833,751.5 512.167,751.5 512.5,751.5C 513.873,751.657 515.207,751.49 516.5,751C 519.879,749.261 523.212,747.428 526.5,745.5C 527.386,746.325 527.719,747.325 527.5,748.5C 528.675,748.719 529.675,748.386 530.5,747.5C 530.833,746.167 531.167,744.833 531.5,743.5C 535.595,741.126 539.595,738.793 543.5,736.5C 545.684,734.415 548.351,733.415 551.5,733.5C 559.015,731.619 566.348,729.119 573.5,726C 579.565,725.157 585.565,724.99 591.5,725.5C 591.5,723.833 591.5,722.167 591.5,720.5C 592.568,719.566 593.901,719.232 595.5,719.5C 604.833,718.833 614.167,718.167 623.5,717.5C 623.5,716.5 623.5,715.5 623.5,714.5C 640.558,712.695 657.725,711.695 675,711.5C 689.831,711.98 704.665,712.313 719.5,712.5 Z"/></g>
<g><path style="opacity:1" fill="#2ca0de" d="M 623.5,714.5 C 623.5,715.5 623.5,716.5 623.5,717.5C 614.167,718.167 604.833,718.833 595.5,719.5C 604.48,716.573 613.813,714.907 623.5,714.5 Z"/></g>
<g><path style="opacity:1" fill="#28a0e6" d="M 719.5,712.5 C 728.457,713.779 737.457,714.779 746.5,715.5C 758.882,718.679 771.215,722.012 783.5,725.5C 774.691,724.557 766.025,723.223 757.5,721.5C 755.307,721.326 753.473,721.993 752,723.5C 750.56,721.954 748.727,721.121 746.5,721C 745.833,720 745.167,719 744.5,718C 735.837,716.577 727.503,714.744 719.5,712.5 Z"/></g>
<g><path style="opacity:1" fill="#43a6dd" d="M 591.5,720.5 C 591.5,722.167 591.5,723.833 591.5,725.5C 585.565,724.99 579.565,725.157 573.5,726C 566.348,729.119 559.015,731.619 551.5,733.5C 552.058,732.21 553.058,731.377 554.5,731C 566.554,726.424 578.888,722.924 591.5,720.5 Z"/></g>
<g><path style="opacity:1" fill="#42a4dc" d="M 1322.5,732.5 C 1340.59,738.882 1359.26,741.548 1378.5,740.5C 1364.26,741.98 1349.92,741.48 1335.5,739C 1331.09,738.788 1327.09,737.455 1323.5,735C 1322.75,734.329 1322.41,733.496 1322.5,732.5 Z"/></g>
<g><path style="opacity:1" fill="#ebfcfc" d="M 1283.5,706.5 C 1284.92,706.709 1286.26,707.209 1287.5,708C 1289.41,710.622 1291.74,712.789 1294.5,714.5C 1296.52,713.294 1298.52,713.294 1300.5,714.5C 1301.31,715.814 1302.31,716.981 1303.5,718C 1302.66,719.666 1303.16,719.833 1305,718.5C 1306.33,719.167 1307.33,720.167 1308,721.5C 1310.62,720.774 1313.12,721.274 1315.5,723C 1314.24,723.923 1312.91,724.757 1311.5,725.5C 1315.44,725.917 1319.27,725.917 1323,725.5C 1323.64,723.697 1324.8,722.364 1326.5,721.5C 1327.78,724.034 1327.78,726.534 1326.5,729C 1331.56,732.366 1337.06,734.866 1343,736.5C 1348.08,735.363 1353.25,735.196 1358.5,736C 1355.83,736.333 1353.17,736.667 1350.5,737C 1350.83,737.333 1351.17,737.667 1351.5,738C 1362.17,738.667 1372.83,738.667 1383.5,738C 1384.5,737.667 1385.5,737.333 1386.5,737C 1384.5,736.667 1382.5,736.333 1380.5,736C 1386.86,735.831 1393.19,735.331 1399.5,734.5C 1401.56,732.731 1403.39,730.731 1405,728.5C 1405.48,730.646 1406.81,731.646 1409,731.5C 1412.9,729.42 1417.07,727.92 1421.5,727C 1423.05,725.56 1423.88,723.727 1424,721.5C 1424.39,722.428 1425.05,723.095 1426,723.5C 1427.77,722.767 1429.6,722.433 1431.5,722.5C 1430.55,723.452 1429.55,724.452 1428.5,725.5C 1412.85,733.715 1396.18,738.715 1378.5,740.5C 1359.26,741.548 1340.59,738.882 1322.5,732.5C 1307.3,726.931 1294.3,718.265 1283.5,706.5 Z"/></g>
<g><path style="opacity:1" fill="#1fa2ea" d="M 783.5,725.5 C 813.564,734.369 841.231,747.702 866.5,765.5C 864.723,765.786 863.056,766.453 861.5,767.5C 860.835,766.487 859.668,765.487 858,764.5C 850.854,766.159 850.02,764.825 855.5,760.5C 855,760.167 854.5,759.833 854,759.5C 849.531,761.762 845.031,761.929 840.5,760C 840.957,759.586 841.291,759.086 841.5,758.5C 840.112,756.891 839.112,755.058 838.5,753C 839.802,750.46 838.802,749.293 835.5,749.5C 831.373,751.224 827.04,751.724 822.5,751C 825.029,749.938 827.696,749.105 830.5,748.5C 830.833,747.833 831.167,747.167 831.5,746.5C 828.554,745.345 825.554,745.179 822.5,746C 820.933,748.741 818.599,749.908 815.5,749.5C 815.5,748.167 815.5,746.833 815.5,745.5C 818.607,745.826 820.94,744.659 822.5,742C 815.972,738.933 809.305,736.1 802.5,733.5C 798.069,735.525 793.402,736.025 788.5,735C 791.906,734.397 792.239,733.231 789.5,731.5C 787.827,733.086 785.827,733.753 783.5,733.5C 783.5,732.5 783.5,731.5 783.5,730.5C 784.978,730.762 786.311,730.429 787.5,729.5C 785.921,728.333 784.588,727 783.5,725.5 Z"/></g>
<g><path style="opacity:1" fill="#e2fafc" d="M 1067.5,687.5 C 1074.18,709.886 1083.18,731.22 1094.5,751.5C 1094.83,752.833 1095.17,754.167 1095.5,755.5C 1094.07,753.556 1092.24,751.889 1090,750.5C 1089.78,752.384 1089.12,754.051 1088,755.5C 1088,751.5 1088,747.5 1088,743.5C 1086.49,742.743 1085.15,741.743 1084,740.5C 1083.95,734.447 1081.95,729.114 1078,724.5C 1075.25,716.655 1072.41,708.821 1069.5,701C 1068.69,696.511 1068.03,692.011 1067.5,687.5 Z"/></g>
<g><path style="opacity:1" fill="#39a0dc" d="M 543.5,736.5 C 539.595,738.793 535.595,741.126 531.5,743.5C 531.167,744.833 530.833,746.167 530.5,747.5C 529.675,748.386 528.675,748.719 527.5,748.5C 527.719,747.325 527.386,746.325 526.5,745.5C 523.212,747.428 519.879,749.261 516.5,751C 515.207,751.49 513.873,751.657 512.5,751.5C 522.122,745.19 532.455,740.19 543.5,736.5 Z"/></g>
<g><path style="opacity:1" fill="#27a3e9" d="M 1094.5,751.5 C 1098.82,752.73 1101.32,755.73 1102,760.5C 1103.35,760.446 1104.52,760.946 1105.5,762C 1105.4,764.805 1105.73,767.639 1106.5,770.5C 1108.67,769.821 1110.67,768.821 1112.5,767.5C 1114.88,769.53 1114.21,770.53 1110.5,770.5C 1110.34,772.527 1110.5,774.527 1111,776.5C 1112.99,777.279 1114.83,777.613 1116.5,777.5C 1115.25,779.323 1114.59,781.323 1114.5,783.5C 1108.14,774.146 1101.8,764.812 1095.5,755.5C 1095.17,754.167 1094.83,752.833 1094.5,751.5 Z"/></g>
<g><path style="opacity:1" fill="#21a2eb" d="M 867.5,765.5 C 887.123,779.623 905.29,795.623 922,813.5C 922.464,814.094 922.631,814.761 922.5,815.5C 921.5,815.5 920.5,815.5 919.5,815.5C 919.688,813.897 919.188,812.563 918,811.5C 917,812.833 916,812.833 915,811.5C 914.51,810.207 914.343,808.873 914.5,807.5C 911.625,806.377 908.625,805.544 905.5,805C 904.577,802.959 904.244,800.792 904.5,798.5C 901.326,798.664 898.493,799.664 896,801.5C 894.087,799.546 892.92,797.213 892.5,794.5C 893.651,792.675 894.318,790.675 894.5,788.5C 892.876,788.36 891.71,789.027 891,790.5C 888.29,789.086 887.29,787.086 888,784.5C 884.535,784.033 882.868,782.033 883,778.5C 877.057,777.03 872.057,774.03 868,769.5C 867.51,768.207 867.343,766.873 867.5,765.5 Z"/></g>
<g><path style="opacity:1" fill="#24a4e7" d="M 1119.5,790.5 C 1122.06,790.979 1124.56,791.645 1127,792.5C 1127.33,793.833 1127.67,795.167 1128,796.5C 1133.09,798.417 1135.59,802.084 1135.5,807.5C 1129.46,802.463 1124.13,796.797 1119.5,790.5 Z"/></g>
<g><path style="opacity:1" fill="#24a3ee" d="M 511.5,751.5 C 511.719,752.675 511.386,753.675 510.5,754.5C 507.361,755.392 505.028,757.225 503.5,760C 495.701,762.173 489.701,766.506 485.5,773C 483.527,773.495 481.527,773.662 479.5,773.5C 479.5,774.833 479.5,776.167 479.5,777.5C 481.262,777.357 482.929,777.691 484.5,778.5C 485.711,779.274 485.711,780.107 484.5,781C 482.671,781.273 481.171,782.107 480,783.5C 479.964,781.059 479.131,779.059 477.5,777.5C 475.144,779.69 472.644,781.69 470,783.5C 468.68,787.424 465.846,789.257 461.5,789C 459.759,790.62 457.925,792.12 456,793.5C 455.508,794.549 455.674,795.549 456.5,796.5C 457.833,797.167 459.167,797.833 460.5,798.5C 458.647,799.76 456.814,799.76 455,798.5C 453.638,801.236 451.804,803.569 449.5,805.5C 449.166,806.998 449.166,808.665 449.5,810.5C 448.672,811.415 447.672,812.081 446.5,812.5C 445.699,808.779 444.366,808.612 442.5,812C 444.801,815.302 447.468,818.302 450.5,821C 448.535,824.903 445.868,828.237 442.5,831C 440.939,831.188 440.272,830.355 440.5,828.5C 438.311,828.793 436.311,829.293 434.5,830C 436.682,827.988 439.349,826.988 442.5,827C 443.126,826.25 443.626,825.416 444,824.5C 445.533,818.536 443.367,815.203 437.5,814.5C 436.649,819.664 433.982,822.664 429.5,823.5C 425.832,825.775 425.832,828.275 429.5,831C 427.667,831.5 426.5,832.667 426,834.5C 424.419,832.425 422.585,832.425 420.5,834.5C 418.229,838.612 415.729,842.612 413,846.5C 412.329,847.252 411.496,847.586 410.5,847.5C 435.745,806.587 469.412,774.587 511.5,751.5 Z"/></g>
<g><path style="opacity:1" fill="#1aa2f2" d="M 1634.5,767.5 C 1621.94,787.568 1606.94,805.734 1589.5,822C 1585.39,825.102 1581.39,828.269 1577.5,831.5C 1570.43,837.245 1563.1,842.578 1555.5,847.5C 1555.65,846.448 1555.48,845.448 1555,844.5C 1553.51,843.845 1552.35,842.845 1551.5,841.5C 1552,841.167 1552.5,840.833 1553,840.5C 1554.59,841.67 1556.25,842.67 1558,843.5C 1558.77,842.151 1559.94,841.318 1561.5,841C 1560.17,840.333 1560.17,839.667 1561.5,839C 1563.38,838.784 1565.05,838.117 1566.5,837C 1560.91,833.632 1561.24,831.465 1567.5,830.5C 1567.5,828.167 1567.5,825.833 1567.5,823.5C 1568.55,823.649 1569.55,823.483 1570.5,823C 1572.87,819.482 1576.21,817.982 1580.5,818.5C 1580.83,815.689 1581.66,813.022 1583,810.5C 1587.44,812.752 1587.61,815.418 1583.5,818.5C 1584.08,820.55 1585.41,821.55 1587.5,821.5C 1589.59,818.538 1591.59,815.371 1593.5,812C 1592.83,811.667 1592.17,811.333 1591.5,811C 1592.83,810 1592.83,809 1591.5,808C 1589.17,807.667 1586.83,807.333 1584.5,807C 1583.66,805.989 1583.33,804.822 1583.5,803.5C 1589.38,802.781 1595.04,801.281 1600.5,799C 1605.04,795.43 1605.04,792.263 1600.5,789.5C 1599.17,787.833 1599.17,786.167 1600.5,784.5C 1603.07,786.717 1606.07,787.884 1609.5,788C 1608.11,788.956 1607.44,790.289 1607.5,792C 1608.47,794.305 1609.63,796.138 1611,797.5C 1613.51,793.072 1616.17,788.738 1619,784.5C 1620.01,783.663 1621.18,783.33 1622.5,783.5C 1624.16,779.918 1622.83,778.252 1618.5,778.5C 1618.5,776.5 1618.5,774.5 1618.5,772.5C 1619.5,772.5 1620.5,772.5 1621.5,772.5C 1621.26,774.467 1621.59,776.301 1622.5,778C 1624.24,777.862 1625.9,777.362 1627.5,776.5C 1628.83,773.5 1630.17,770.5 1631.5,767.5C 1632.5,767.5 1633.5,767.5 1634.5,767.5 Z"/></g>
<g><path style="opacity:1" fill="#20a2ef" d="M 1135.5,808.5 C 1136.92,808.709 1138.26,809.209 1139.5,810C 1145.64,814.807 1151.64,819.64 1157.5,824.5C 1159.44,826.04 1160.6,828.04 1161,830.5C 1163.27,832.188 1165.43,834.021 1167.5,836C 1170.93,836.638 1172.26,835.138 1171.5,831.5C 1175.78,832.484 1180.11,833.317 1184.5,834C 1185.34,835.011 1185.67,836.178 1185.5,837.5C 1183.83,837.5 1182.17,837.5 1180.5,837.5C 1180.35,839.942 1181.19,840.609 1183,839.5C 1187.68,842.168 1187.51,844.668 1182.5,847C 1183.06,847.383 1183.39,847.883 1183.5,848.5C 1165.35,837.678 1149.35,824.345 1135.5,808.5 Z"/></g>
<g><path style="opacity:1" fill="#d1f9fd" d="M 935.5,831.5 C 937.143,831.48 938.476,832.147 939.5,833.5C 941.138,836.617 943.138,839.45 945.5,842C 949.333,849.169 953,856.335 956.5,863.5C 949.564,852.877 942.564,842.21 935.5,831.5 Z"/></g>
<g><path style="opacity:1" fill="#d4f8fc" d="M 1577.5,831.5 C 1576.12,834.394 1574.12,836.894 1571.5,839C 1566.45,842.53 1561.78,846.53 1557.5,851C 1555.19,851.497 1552.86,851.663 1550.5,851.5C 1551.98,849.926 1553.65,848.593 1555.5,847.5C 1563.1,842.578 1570.43,837.245 1577.5,831.5 Z"/></g>
<g><path style="opacity:1" fill="#1ea2ef" d="M 922.5,815.5 C 926.803,820.809 931.137,826.142 935.5,831.5C 942.564,842.21 949.564,852.877 956.5,863.5C 961.59,874.015 966.423,884.682 971,895.5C 972.819,900.781 974.319,906.114 975.5,911.5C 974.5,911.5 973.5,911.5 972.5,911.5C 972.762,910.022 972.429,908.689 971.5,907.5C 968.865,907.106 968.199,905.939 969.5,904C 968.616,901.078 967.616,898.245 966.5,895.5C 965.167,895.5 963.833,895.5 962.5,895.5C 962.717,892.565 963.383,889.731 964.5,887C 964.167,886.167 963.833,885.333 963.5,884.5C 961.578,886.003 960.412,888.003 960,890.5C 959.242,888.231 959.409,886.064 960.5,884C 959.773,882.601 959.273,881.101 959,879.5C 955.733,881.988 953.733,880.988 953,876.5C 946.441,874.05 944.108,869.383 946,862.5C 947.625,861.119 948.792,859.452 949.5,857.5C 948.067,854.863 946.234,852.53 944,850.5C 943.506,848.866 943.34,847.199 943.5,845.5C 941.167,846.167 938.833,846.833 936.5,847.5C 937.014,845.302 938.014,843.302 939.5,841.5C 937.394,838.746 935.728,835.746 934.5,832.5C 930.009,831.186 927.675,828.186 927.5,823.5C 923.585,822.861 920.085,822.861 917,823.5C 916.383,822.551 916.549,821.718 917.5,821C 915.667,819.5 913.833,818 912,816.5C 911.251,815.365 911.417,814.365 912.5,813.5C 913.807,814.816 915.307,815.816 917,816.5C 919.488,821.694 921.321,821.361 922.5,815.5 Z"/></g>
<g><path style="opacity:1" fill="#37a5df" d="M 703.5,873.5 C 690.06,871.447 676.726,871.114 663.5,872.5C 657.38,872.268 651.38,872.935 645.5,874.5C 646.23,872.955 647.563,872.122 649.5,872C 667.43,869.258 685.43,868.758 703.5,870.5C 703.5,871.5 703.5,872.5 703.5,873.5 Z"/></g>
<g><path style="opacity:1" fill="#22a1ec" d="M 758.5,900.5 C 746.199,889.835 732.199,882.168 716.5,877.5C 712.833,876.167 709.167,874.833 705.5,873.5C 712.957,874.382 720.291,875.215 727.5,876C 730.215,876.875 731.548,878.708 731.5,881.5C 737.658,881.051 737.992,879.717 732.5,877.5C 732.756,875.208 732.423,873.041 731.5,871C 733.235,870.349 734.902,870.515 736.5,871.5C 736.653,873.796 736.987,876.129 737.5,878.5C 740.923,879.099 743.923,880.432 746.5,882.5C 744.861,883.916 744.027,885.583 744,887.5C 748.895,891.369 754.395,894.369 760.5,896.5C 759.82,897.86 759.153,899.193 758.5,900.5 Z"/></g>
<g><path style="opacity:1" fill="#dbfdfe" d="M 663.5,872.5 C 676.726,871.114 690.06,871.447 703.5,873.5C 704.167,873.5 704.833,873.5 705.5,873.5C 709.167,874.833 712.833,876.167 716.5,877.5C 707.888,875.68 699.221,874.18 690.5,873C 681.506,872.5 672.506,872.334 663.5,872.5 Z"/></g>
<g><path style="opacity:1" fill="#d4f6fb" d="M 1503.5,876.5 C 1499.92,878.205 1496.59,880.372 1493.5,883C 1490.17,883.333 1486.83,883.667 1483.5,884C 1479.88,886.33 1475.88,887.497 1471.5,887.5C 1474.72,886.009 1478.05,884.509 1481.5,883C 1488.77,880.646 1496.1,878.479 1503.5,876.5 Z"/></g>
<g><path style="opacity:1" fill="#cff9fe" d="M 1455.5,891.5 C 1455.21,892.649 1454.38,893.316 1453,893.5C 1409.73,902.632 1366.06,904.966 1322,900.5C 1319.91,900.536 1317.91,900.869 1316,901.5C 1311.7,899.751 1307.2,898.585 1302.5,898C 1301.62,897.292 1300.95,896.458 1300.5,895.5C 1301.5,895.5 1302.5,895.5 1303.5,895.5C 1316.5,898.736 1329.83,900.403 1343.5,900.5C 1359.5,901.833 1375.5,901.833 1391.5,900.5C 1403.74,900.103 1415.74,898.769 1427.5,896.5C 1436.82,894.837 1446.15,893.171 1455.5,891.5 Z"/></g>
<g><path style="opacity:1" fill="#2f9fd6" d="M 1427.5,896.5 C 1415.74,898.769 1403.74,900.103 1391.5,900.5C 1393.74,899.188 1396.41,898.522 1399.5,898.5C 1408.81,897.502 1418.15,896.836 1427.5,896.5 Z"/></g>
<g><path style="opacity:1" fill="#3fa3d3" d="M 1303.5,895.5 C 1317.18,896.661 1330.52,898.328 1343.5,900.5C 1329.83,900.403 1316.5,898.736 1303.5,895.5 Z"/></g>
<g><path style="opacity:1" fill="#39a3da" d="M 383.5,903.5 C 382.543,910.941 381.043,918.274 379,925.5C 378,926.833 377,928.167 376,929.5C 375.533,934.73 374.033,939.397 371.5,943.5C 374.119,929.653 378.119,916.32 383.5,903.5 Z"/></g>
<g><path style="opacity:1" fill="#2ea3e2" d="M 776.5,920.5 C 777.735,920.721 778.735,921.388 779.5,922.5C 780.5,921.833 781.5,921.167 782.5,920.5C 782.833,920.833 783.167,921.167 783.5,921.5C 782.515,923.098 782.349,924.765 783,926.5C 786.962,930.66 788.796,935.66 788.5,941.5C 784.768,934.372 780.768,927.372 776.5,920.5 Z"/></g>
<g><path style="opacity:1" fill="#c4f8fd" d="M 1410.5,954.5 C 1419.6,953.907 1428.26,955.24 1436.5,958.5C 1427.72,957.161 1419.05,955.828 1410.5,954.5 Z"/></g>
<g><path style="opacity:1" fill="#09a2fa" d="M 1511.5,982.5 C 1512.17,982.5 1512.83,982.5 1513.5,982.5C 1514.44,985.987 1516.78,987.32 1520.5,986.5C 1520.58,987.93 1520.25,989.264 1519.5,990.5C 1522.41,991.068 1525.41,991.068 1528.5,990.5C 1528.58,991.93 1528.25,993.264 1527.5,994.5C 1529.5,995.5 1531.5,996.5 1533.5,997.5C 1535.13,996.954 1536.8,996.62 1538.5,996.5C 1538.5,997.5 1538.5,998.5 1538.5,999.5C 1537.5,999.5 1536.5,999.5 1535.5,999.5C 1535.28,1000.68 1535.61,1001.68 1536.5,1002.5C 1537.93,1001.06 1539.6,1000.06 1541.5,999.5C 1546.6,1002.59 1551.93,1005.26 1557.5,1007.5C 1561.93,1010.08 1566.27,1012.92 1570.5,1016C 1573.43,1018.28 1576.1,1020.78 1578.5,1023.5C 1578.21,1025.29 1578.55,1026.95 1579.5,1028.5C 1581.89,1028.91 1583.89,1029.91 1585.5,1031.5C 1584,1032.84 1583.33,1034.51 1583.5,1036.5C 1582.02,1036.24 1580.69,1036.57 1579.5,1037.5C 1579.89,1038.72 1580.72,1039.39 1582,1039.5C 1583.67,1037.83 1585.33,1036.17 1587,1034.5C 1592.05,1036.35 1593.55,1039.68 1591.5,1044.5C 1598.01,1044.08 1602.68,1046.75 1605.5,1052.5C 1606.32,1053.39 1607.32,1053.72 1608.5,1053.5C 1607.17,1057.83 1607.17,1062.17 1608.5,1066.5C 1611.53,1066.61 1612.53,1067.94 1611.5,1070.5C 1614.27,1071.25 1616.94,1072.25 1619.5,1073.5C 1618.57,1074.77 1618.41,1076.1 1619,1077.5C 1621.37,1082.19 1624.7,1085.86 1629,1088.5C 1631.22,1087.22 1633.39,1086.88 1635.5,1087.5C 1637.2,1091.26 1638.53,1095.26 1639.5,1099.5C 1642.5,1099.17 1643.83,1100.5 1643.5,1103.5C 1643.5,1104.5 1643.5,1105.5 1643.5,1106.5C 1462.84,1106.51 1282.17,1106.51 1101.5,1106.5C 1101.21,1104.72 1100.55,1103.06 1099.5,1101.5C 1101.85,1097.83 1103.18,1093.83 1103.5,1089.5C 1103.33,1088.51 1103.66,1087.84 1104.5,1087.5C 1105.5,1087.5 1106.5,1087.5 1107.5,1087.5C 1108.01,1084.14 1109.35,1081.14 1111.5,1078.5C 1113.18,1079.51 1114.52,1079.01 1115.5,1077C 1114.85,1075.56 1114.52,1074.06 1114.5,1072.5C 1114.5,1071.83 1114.83,1071.5 1115.5,1071.5C 1116.82,1071.33 1117.99,1071.66 1119,1072.5C 1119.22,1071.06 1119.72,1069.73 1120.5,1068.5C 1121.39,1069.32 1121.72,1070.32 1121.5,1071.5C 1123.83,1071.5 1126.17,1071.5 1128.5,1071.5C 1128.27,1069.57 1127.44,1067.9 1126,1066.5C 1125.67,1066.83 1125.33,1067.17 1125,1067.5C 1124.41,1062.3 1126.24,1061.3 1130.5,1064.5C 1131.79,1061.79 1131.46,1059.29 1129.5,1057C 1131.13,1054.91 1132.63,1052.75 1134,1050.5C 1136.67,1048.5 1139.33,1046.5 1142,1044.5C 1142.61,1042.85 1143.11,1041.18 1143.5,1039.5C 1145.55,1036.45 1148.22,1034.12 1151.5,1032.5C 1154.97,1032.13 1157.97,1033.13 1160.5,1035.5C 1161.17,1035.17 1161.83,1034.83 1162.5,1034.5C 1161.05,1032.38 1160.39,1030.05 1160.5,1027.5C 1162.93,1027.58 1164.93,1028.58 1166.5,1030.5C 1167.45,1028.95 1167.79,1027.29 1167.5,1025.5C 1166.32,1025.72 1165.32,1025.39 1164.5,1024.5C 1167.82,1020.02 1171.98,1016.36 1177,1013.5C 1178.28,1013.61 1179.11,1014.28 1179.5,1015.5C 1177.47,1016.6 1176.13,1018.26 1175.5,1020.5C 1173.77,1021.01 1172.11,1021.68 1170.5,1022.5C 1174.77,1028.84 1176.94,1028.51 1177,1021.5C 1178.11,1020.29 1179.28,1020.29 1180.5,1021.5C 1182.47,1017.26 1183.97,1012.93 1185,1008.5C 1185.33,1009.17 1185.67,1009.83 1186,1010.5C 1188.4,1008.69 1190.07,1006.36 1191,1003.5C 1195.8,1000.47 1200.96,998.306 1206.5,997C 1208.65,995.351 1210.65,993.518 1212.5,991.5C 1215.16,990.668 1217.83,989.834 1220.5,989C 1221.83,988.333 1221.83,987.667 1220.5,987C 1221.94,986.623 1222.94,985.79 1223.5,984.5C 1224.51,983.326 1225.85,982.66 1227.5,982.5C 1233.16,981.234 1238.83,981.234 1244.5,982.5C 1248.14,982.286 1248.48,981.119 1245.5,979C 1246.63,977.984 1246.3,977.317 1244.5,977C 1248.35,975.525 1252.35,974.359 1256.5,973.5C 1261.97,975.676 1267.64,976.009 1273.5,974.5C 1268.87,973.672 1264.2,973.172 1259.5,973C 1266.16,971.029 1272.83,969.195 1279.5,967.5C 1279.5,966.5 1279.5,965.5 1279.5,964.5C 1299.73,961.24 1320.06,958.24 1340.5,955.5C 1341.5,955.833 1342.5,956.167 1343.5,956.5C 1341.12,958.071 1338.45,958.904 1335.5,959C 1336.83,959.167 1338.17,959.333 1339.5,959.5C 1346.02,957.795 1352.69,957.128 1359.5,957.5C 1359.5,956.5 1359.5,955.5 1359.5,954.5C 1370.19,954.168 1380.85,954.501 1391.5,955.5C 1395.67,957.123 1400.17,958.456 1405,959.5C 1409.75,956.849 1414.41,956.849 1419,959.5C 1424.21,957.614 1428.87,958.28 1433,961.5C 1434.71,960.047 1436.21,960.214 1437.5,962C 1443.51,962.424 1449.51,962.924 1455.5,963.5C 1455.5,964.5 1455.5,965.5 1455.5,966.5C 1460.57,968.69 1465.9,969.69 1471.5,969.5C 1471.5,970.833 1471.5,972.167 1471.5,973.5C 1476.92,973.524 1482.26,974.19 1487.5,975.5C 1487.2,977.604 1487.53,979.604 1488.5,981.5C 1489.83,979.833 1491.17,978.167 1492.5,976.5C 1496.11,977.986 1499.78,979.319 1503.5,980.5C 1501.01,981.541 1501.01,982.374 1503.5,983C 1506.16,983.175 1508.82,983.008 1511.5,982.5 Z"/></g>
<g><path style="opacity:1" fill="#2da3e7" d="M 1410.5,954.5 C 1419.05,955.828 1427.72,957.161 1436.5,958.5C 1459.43,962.982 1481.76,969.482 1503.5,978C 1506.39,979.274 1509.06,980.774 1511.5,982.5C 1508.82,983.008 1506.16,983.175 1503.5,983C 1501.01,982.374 1501.01,981.541 1503.5,980.5C 1499.78,979.319 1496.11,977.986 1492.5,976.5C 1491.17,978.167 1489.83,979.833 1488.5,981.5C 1487.53,979.604 1487.2,977.604 1487.5,975.5C 1482.26,974.19 1476.92,973.524 1471.5,973.5C 1471.5,972.167 1471.5,970.833 1471.5,969.5C 1465.9,969.69 1460.57,968.69 1455.5,966.5C 1455.5,965.5 1455.5,964.5 1455.5,963.5C 1449.51,962.924 1443.51,962.424 1437.5,962C 1436.21,960.214 1434.71,960.047 1433,961.5C 1428.87,958.28 1424.21,957.614 1419,959.5C 1414.41,956.849 1409.75,956.849 1405,959.5C 1400.17,958.456 1395.67,957.123 1391.5,955.5C 1380.85,954.501 1370.19,954.168 1359.5,954.5C 1359.5,955.5 1359.5,956.5 1359.5,957.5C 1352.69,957.128 1346.02,957.795 1339.5,959.5C 1338.17,959.333 1336.83,959.167 1335.5,959C 1338.45,958.904 1341.12,958.071 1343.5,956.5C 1342.5,956.167 1341.5,955.833 1340.5,955.5C 1320.06,958.24 1299.73,961.24 1279.5,964.5C 1279.5,964.167 1279.5,963.833 1279.5,963.5C 1322.61,953.21 1366.28,950.21 1410.5,954.5 Z"/></g>
<g><path style="opacity:1" fill="#39a2dc" d="M 559.5,963.5 C 559.5,964.167 559.5,964.833 559.5,965.5C 554.395,983.005 552.061,1001.01 552.5,1019.5C 552.028,1036.2 553.694,1052.53 557.5,1068.5C 557.963,1071.48 558.296,1074.48 558.5,1077.5C 557.21,1076.94 556.377,1075.94 556,1074.5C 554.543,1066.03 553.043,1057.53 551.5,1049C 550.254,1027.16 550.421,1005.33 552,983.5C 552.667,982.833 553.333,982.167 554,981.5C 554.803,975.828 555.637,970.161 556.5,964.5C 557.417,963.873 558.417,963.539 559.5,963.5 Z"/></g>
<g><path style="opacity:1" fill="#31a3df" d="M 984.5,943.5 C 985.887,945.877 986.721,948.543 987,951.5C 988.698,962.151 990.198,972.817 991.5,983.5C 991.5,986.167 991.5,988.833 991.5,991.5C 990.778,991.082 990.278,990.416 990,989.5C 988.492,974.112 986.659,958.779 984.5,943.5 Z"/></g>
<g><path style="opacity:1" fill="#27a2e7" d="M 1279.5,964.5 C 1279.5,965.5 1279.5,966.5 1279.5,967.5C 1272.83,969.195 1266.16,971.029 1259.5,973C 1264.2,973.172 1268.87,973.672 1273.5,974.5C 1267.64,976.009 1261.97,975.676 1256.5,973.5C 1252.35,974.359 1248.35,975.525 1244.5,977C 1246.3,977.317 1246.63,977.984 1245.5,979C 1248.48,981.119 1248.14,982.286 1244.5,982.5C 1238.83,981.234 1233.16,981.234 1227.5,982.5C 1244.02,974.327 1261.35,968.327 1279.5,964.5 Z"/></g>
<g><path style="opacity:1" fill="#d7fbfd" d="M 1279.5,963.5 C 1279.5,963.833 1279.5,964.167 1279.5,964.5C 1261.35,968.327 1244.02,974.327 1227.5,982.5C 1225.85,982.66 1224.51,983.326 1223.5,984.5C 1215.53,988.15 1207.53,991.817 1199.5,995.5C 1199.37,994.624 1199.7,993.957 1200.5,993.5C 1214,986.523 1227.83,980.189 1242,974.5C 1243.17,973.991 1244,973.158 1244.5,972C 1250.79,970.822 1256.79,968.988 1262.5,966.5C 1261.83,965.833 1261.17,965.167 1260.5,964.5C 1261,964.167 1261.5,963.833 1262,963.5C 1263.37,964.456 1264.87,965.122 1266.5,965.5C 1270.77,964.349 1275.1,963.683 1279.5,963.5 Z"/></g>
<g><path style="opacity:1" fill="#dafdfe" d="M 799.5,978.5 C 801.353,986.62 802.686,994.954 803.5,1003.5C 803.667,1016.5 803.5,1029.5 803,1042.5C 802.563,1047.71 801.73,1052.71 800.5,1057.5C 801.681,1046.2 802.348,1034.87 802.5,1023.5C 801.963,1008.47 800.963,993.467 799.5,978.5 Z"/></g>
<g><path style="opacity:1" fill="#eafcfc" d="M 559.5,965.5 C 558.528,973.179 558.528,980.846 559.5,988.5C 558.941,994.877 558.108,1001.21 557,1007.5C 555.883,1006.05 555.216,1004.38 555,1002.5C 554.333,1018.17 554.333,1033.83 555,1049.5C 556.738,1055.63 557.572,1061.96 557.5,1068.5C 553.694,1052.53 552.028,1036.2 552.5,1019.5C 552.061,1001.01 554.395,983.005 559.5,965.5 Z"/></g>
<g><path style="opacity:1" fill="#27a0e6" d="M 1513.5,982.5 C 1529.18,989.204 1543.84,997.537 1557.5,1007.5C 1551.93,1005.26 1546.6,1002.59 1541.5,999.5C 1539.6,1000.06 1537.93,1001.06 1536.5,1002.5C 1535.61,1001.68 1535.28,1000.68 1535.5,999.5C 1536.5,999.5 1537.5,999.5 1538.5,999.5C 1538.5,998.5 1538.5,997.5 1538.5,996.5C 1536.8,996.62 1535.13,996.954 1533.5,997.5C 1531.5,996.5 1529.5,995.5 1527.5,994.5C 1528.25,993.264 1528.58,991.93 1528.5,990.5C 1525.41,991.068 1522.41,991.068 1519.5,990.5C 1520.25,989.264 1520.58,987.93 1520.5,986.5C 1516.78,987.32 1514.44,985.987 1513.5,982.5 Z"/></g>
<g><path style="opacity:1" fill="#e0fbfd" d="M 991.5,983.5 C 992.458,983.953 993.292,984.619 994,985.5C 994.885,1012.85 994.552,1040.19 993,1067.5C 992.878,1069.44 992.045,1070.77 990.5,1071.5C 990.833,1066.17 991.167,1060.83 991.5,1055.5C 991.5,1053.5 991.5,1051.5 991.5,1049.5C 992.992,1040.04 993.659,1030.38 993.5,1020.5C 993.659,1010.62 992.992,1000.96 991.5,991.5C 991.5,988.833 991.5,986.167 991.5,983.5 Z"/></g>
<g><path style="opacity:1" fill="#3ba2db" d="M 367.5,967.5 C 365.107,995.44 364.107,1023.44 364.5,1051.5C 363.504,1035.68 363.17,1019.68 363.5,1003.5C 363.313,991.186 364.646,979.186 367.5,967.5 Z"/></g>
<g><path style="opacity:1" fill="#45a5d6" d="M 991.5,991.5 C 992.992,1000.96 993.659,1010.62 993.5,1020.5C 993.659,1030.38 992.992,1040.04 991.5,1049.5C 991.5,1030.17 991.5,1010.83 991.5,991.5 Z"/></g>
<g><path style="opacity:1" fill="#22a2ec" d="M 1223.5,984.5 C 1222.94,985.79 1221.94,986.623 1220.5,987C 1221.83,987.667 1221.83,988.333 1220.5,989C 1217.83,989.834 1215.16,990.668 1212.5,991.5C 1210.65,993.518 1208.65,995.351 1206.5,997C 1200.96,998.306 1195.8,1000.47 1191,1003.5C 1190.07,1006.36 1188.4,1008.69 1186,1010.5C 1185.67,1009.83 1185.33,1009.17 1185,1008.5C 1183.97,1012.93 1182.47,1017.26 1180.5,1021.5C 1179.28,1020.29 1178.11,1020.29 1177,1021.5C 1176.94,1028.51 1174.77,1028.84 1170.5,1022.5C 1172.11,1021.68 1173.77,1021.01 1175.5,1020.5C 1176.13,1018.26 1177.47,1016.6 1179.5,1015.5C 1179.11,1014.28 1178.28,1013.61 1177,1013.5C 1171.98,1016.36 1167.82,1020.02 1164.5,1024.5C 1165.32,1025.39 1166.32,1025.72 1167.5,1025.5C 1167.79,1027.29 1167.45,1028.95 1166.5,1030.5C 1164.93,1028.58 1162.93,1027.58 1160.5,1027.5C 1160.39,1030.05 1161.05,1032.38 1162.5,1034.5C 1161.83,1034.83 1161.17,1035.17 1160.5,1035.5C 1157.97,1033.13 1154.97,1032.13 1151.5,1032.5C 1155.28,1027.89 1159.62,1023.72 1164.5,1020C 1176.23,1011.81 1187.9,1003.64 1199.5,995.5C 1207.53,991.817 1215.53,988.15 1223.5,984.5 Z"/></g>
<g><path style="opacity:1" fill="#2aa2e7" d="M 1143.5,1039.5 C 1143.11,1041.18 1142.61,1042.85 1142,1044.5C 1139.33,1046.5 1136.67,1048.5 1134,1050.5C 1132.63,1052.75 1131.13,1054.91 1129.5,1057C 1131.46,1059.29 1131.79,1061.79 1130.5,1064.5C 1126.24,1061.3 1124.41,1062.3 1125,1067.5C 1125.33,1067.17 1125.67,1066.83 1126,1066.5C 1127.44,1067.9 1128.27,1069.57 1128.5,1071.5C 1126.17,1071.5 1123.83,1071.5 1121.5,1071.5C 1121.72,1070.32 1121.39,1069.32 1120.5,1068.5C 1119.72,1069.73 1119.22,1071.06 1119,1072.5C 1117.99,1071.66 1116.82,1071.33 1115.5,1071.5C 1123.72,1059.94 1133.06,1049.27 1143.5,1039.5 Z"/></g>
<g><path style="opacity:1" fill="#19a2f2" d="M 1578.5,1023.5 C 1601.72,1041.06 1620.72,1062.39 1635.5,1087.5C 1633.39,1086.88 1631.22,1087.22 1629,1088.5C 1624.7,1085.86 1621.37,1082.19 1619,1077.5C 1618.41,1076.1 1618.57,1074.77 1619.5,1073.5C 1616.94,1072.25 1614.27,1071.25 1611.5,1070.5C 1612.53,1067.94 1611.53,1066.61 1608.5,1066.5C 1607.17,1062.17 1607.17,1057.83 1608.5,1053.5C 1607.32,1053.72 1606.32,1053.39 1605.5,1052.5C 1602.68,1046.75 1598.01,1044.08 1591.5,1044.5C 1593.55,1039.68 1592.05,1036.35 1587,1034.5C 1585.33,1036.17 1583.67,1037.83 1582,1039.5C 1580.72,1039.39 1579.89,1038.72 1579.5,1037.5C 1580.69,1036.57 1582.02,1036.24 1583.5,1036.5C 1583.33,1034.51 1584,1032.84 1585.5,1031.5C 1583.89,1029.91 1581.89,1028.91 1579.5,1028.5C 1578.55,1026.95 1578.21,1025.29 1578.5,1023.5 Z"/></g>
<g><path style="opacity:1" fill="#c1f0fb" d="M 363.5,1003.5 C 363.17,1019.68 363.504,1035.68 364.5,1051.5C 364.84,1060.92 365.84,1070.25 367.5,1079.5C 366.4,1077.72 365.566,1075.72 365,1073.5C 362.396,1050.06 361.896,1026.73 363.5,1003.5 Z"/></g>
<g><path style="opacity:1" fill="#49a9db" d="M 803.5,1003.5 C 804.661,1017.99 804.828,1032.66 804,1047.5C 803.235,1060.19 800.402,1072.19 795.5,1083.5C 797.801,1074.96 799.468,1066.29 800.5,1057.5C 801.73,1052.71 802.563,1047.71 803,1042.5C 803.5,1029.5 803.667,1016.5 803.5,1003.5 Z"/></g>
<g><path style="opacity:1" fill="#39a5da" d="M 1114.5,1072.5 C 1114.52,1074.06 1114.85,1075.56 1115.5,1077C 1114.52,1079.01 1113.18,1079.51 1111.5,1078.5C 1109.35,1081.14 1108.01,1084.14 1107.5,1087.5C 1106.5,1087.5 1105.5,1087.5 1104.5,1087.5C 1107.09,1081.98 1110.43,1076.98 1114.5,1072.5 Z"/></g>
<g><path style="opacity:1" fill="#d4f4fa" d="M 990.5,1071.5 C 991.801,1085.01 989.135,1097.68 982.5,1109.5C 985.057,1096.71 987.723,1084.05 990.5,1071.5 Z"/></g>
<g><path style="opacity:1" fill="#1e9feb" d="M 991.5,1055.5 C 991.167,1060.83 990.833,1066.17 990.5,1071.5C 987.723,1084.05 985.057,1096.71 982.5,1109.5C 949.673,1110.83 916.507,1111.5 883,1111.5C 849.833,1111.17 816.667,1110.83 783.5,1110.5C 785.463,1105.9 787.796,1101.56 790.5,1097.5C 789.791,1101.72 788.457,1105.72 786.5,1109.5C 849.496,1110.5 912.496,1110.83 975.5,1110.5C 975.64,1108.88 974.973,1107.71 973.5,1107C 974,1106.5 974.5,1106 975,1105.5C 977.215,1106.82 978.715,1106.15 979.5,1103.5C 979.345,1100.27 979.178,1096.94 979,1093.5C 978.056,1092.74 977.556,1091.74 977.5,1090.5C 980.547,1084.65 982.214,1078.32 982.5,1071.5C 980.857,1071.48 979.524,1072.15 978.5,1073.5C 978.167,1073.17 977.833,1072.83 977.5,1072.5C 978.167,1070.17 978.833,1067.83 979.5,1065.5C 976.083,1063.07 974.75,1059.74 975.5,1055.5C 976.5,1055.5 977.5,1055.5 978.5,1055.5C 977.599,1059.24 978.932,1061.24 982.5,1061.5C 982.351,1062.55 982.517,1063.55 983,1064.5C 984,1064.5 985,1064.5 986,1064.5C 987.025,1069.4 986.525,1074.07 984.5,1078.5C 985.325,1079.39 986.325,1079.72 987.5,1079.5C 987.334,1073.16 987.5,1066.82 988,1060.5C 989.262,1056.69 989.929,1052.69 990,1048.5C 990.186,1051.04 990.686,1053.37 991.5,1055.5 Z"/></g>
<g><path style="opacity:1" fill="#0ba3f6" d="M 1103.5,1089.5 C 1103.18,1093.83 1101.85,1097.83 1099.5,1101.5C 1100.55,1103.06 1101.21,1104.72 1101.5,1106.5C 1282.17,1106.51 1462.84,1106.51 1643.5,1106.5C 1643.5,1105.5 1643.5,1104.5 1643.5,1103.5C 1644.28,1105.34 1644.95,1107.34 1645.5,1109.5C 1640.88,1110.49 1636.21,1110.83 1631.5,1110.5C 1543.84,1109.17 1455.84,1108.5 1367.5,1108.5C 1279.16,1108.5 1191.16,1109.17 1103.5,1110.5C 1100.1,1110.82 1096.77,1110.49 1093.5,1109.5C 1094.35,1107.59 1094.68,1105.59 1094.5,1103.5C 1096.69,1098.31 1099.69,1093.65 1103.5,1089.5 Z"/></g>
<g><path style="opacity:1" fill="#2c98db" d="M 559.5,1081.5 C 563.092,1091.26 567.092,1100.93 571.5,1110.5C 571.376,1111.11 571.043,1111.44 570.5,1111.5C 504.833,1111.5 439.167,1111.5 373.5,1111.5C 373.167,1108.83 372.833,1106.17 372.5,1103.5C 373.117,1103.61 373.617,1103.94 374,1104.5C 374.495,1106.47 374.662,1108.47 374.5,1110.5C 439.17,1110.83 503.837,1110.5 568.5,1109.5C 567.675,1108.61 566.675,1108.28 565.5,1108.5C 565.665,1105.48 565.498,1102.48 565,1099.5C 564.333,1098.17 563.333,1097.17 562,1096.5C 561.322,1091.46 560.489,1086.46 559.5,1081.5 Z"/></g>
<g><path style="opacity:1" fill="#2998dc" d="M 1635.5,1087.5 C 1639.2,1092.85 1642.86,1098.19 1646.5,1103.5C 1647.21,1105.93 1648.21,1108.26 1649.5,1110.5C 1463.5,1111.5 1277.5,1111.83 1091.5,1111.5C 1090.96,1111.44 1090.62,1111.11 1090.5,1110.5C 1091.61,1107.94 1092.94,1105.61 1094.5,1103.5C 1094.68,1105.59 1094.35,1107.59 1093.5,1109.5C 1096.77,1110.49 1100.1,1110.82 1103.5,1110.5C 1279.5,1110.5 1455.5,1110.5 1631.5,1110.5C 1636.21,1110.83 1640.88,1110.49 1645.5,1109.5C 1644.95,1107.34 1644.28,1105.34 1643.5,1103.5C 1643.83,1100.5 1642.5,1099.17 1639.5,1099.5C 1638.53,1095.26 1637.2,1091.26 1635.5,1087.5 Z"/></g>
<g><path style="opacity:1" fill="#07a3fd" d="M 1631.5,1110.5 C 1455.5,1110.5 1279.5,1110.5 1103.5,1110.5C 1191.16,1109.17 1279.16,1108.5 1367.5,1108.5C 1455.84,1108.5 1543.84,1109.17 1631.5,1110.5 Z"/></g>
<g><path style="opacity:1" fill="#abe1fc" d="M 370.5,1099.5 C 371.167,1100.83 371.833,1102.17 372.5,1103.5C 372.833,1106.17 373.167,1108.83 373.5,1111.5C 439.167,1111.5 504.833,1111.5 570.5,1111.5C 504.668,1112.67 438.668,1112.83 372.5,1112C 371.419,1107.93 370.752,1103.77 370.5,1099.5 Z"/></g>
<g><path style="opacity:1" fill="#e2f6fe" d="M 1646.5,1103.5 C 1649.04,1104.3 1651.37,1106.13 1653.5,1109C 1652.25,1111.38 1650.58,1113.38 1648.5,1115C 1466.83,1115.67 1285.17,1115.67 1103.5,1115C 1282.17,1114.67 1460.83,1114.33 1639.5,1114C 1459.83,1113.67 1280.17,1113.33 1100.5,1113C 1097.31,1112.82 1094.31,1112.32 1091.5,1111.5C 1277.5,1111.83 1463.5,1111.5 1649.5,1110.5C 1648.21,1108.26 1647.21,1105.93 1646.5,1103.5 Z"/></g>
<g><path style="opacity:1" fill="#010101" d="M 1389.5,1575.5 C 1366.17,1575.5 1342.83,1575.5 1319.5,1575.5C 1319.83,1564.81 1319.5,1554.15 1318.5,1543.5C 1317.89,1543.62 1317.56,1543.96 1317.5,1544.5C 1299.84,1568.66 1275.84,1579.99 1245.5,1578.5C 1200.84,1575.7 1170.34,1553.37 1154,1511.5C 1144.73,1482.26 1143.06,1452.6 1149,1422.5C 1157.3,1387.39 1177.8,1362.22 1210.5,1347C 1245.64,1334.74 1277.98,1339.74 1307.5,1362C 1310.96,1365.77 1314.29,1369.6 1317.5,1373.5C 1317.78,1374.29 1318.28,1374.96 1319,1375.5C 1319.5,1339.83 1319.67,1304.17 1319.5,1268.5C 1342.83,1268.5 1366.17,1268.5 1389.5,1268.5C 1389.5,1370.83 1389.5,1473.17 1389.5,1575.5 Z"/></g>
<g><path style="opacity:1" fill="#000000" d="M 1512.5,1268.5 C 1512.5,1370.83 1512.5,1473.17 1512.5,1575.5C 1489.17,1575.5 1465.83,1575.5 1442.5,1575.5C 1441.5,1473.33 1441.17,1371 1441.5,1268.5C 1465.17,1267.17 1488.83,1267.17 1512.5,1268.5 Z"/></g>
<g><path style="opacity:1" fill="#6d6d6d" d="M 1389.5,1575.5 C 1389.5,1473.17 1389.5,1370.83 1389.5,1268.5C 1366.17,1268.5 1342.83,1268.5 1319.5,1268.5C 1319.67,1304.17 1319.5,1339.83 1319,1375.5C 1318.28,1374.96 1317.78,1374.29 1317.5,1373.5C 1318.5,1338.34 1318.83,1303 1318.5,1267.5C 1342.5,1267.5 1366.5,1267.5 1390.5,1267.5C 1390.83,1370.33 1390.5,1473 1389.5,1575.5 Z"/></g>
<g><path style="opacity:1" fill="#d5d5d5" d="M 1512.5,1268.5 C 1513.5,1371 1513.83,1473.67 1513.5,1576.5C 1489.83,1576.5 1466.17,1576.5 1442.5,1576.5C 1442.5,1576.17 1442.5,1575.83 1442.5,1575.5C 1465.83,1575.5 1489.17,1575.5 1512.5,1575.5C 1512.5,1473.17 1512.5,1370.83 1512.5,1268.5 Z"/></g>
<g><path style="opacity:1" fill="#e8e8e8" d="M 1441.5,1268.5 C 1441.17,1371 1441.5,1473.33 1442.5,1575.5C 1442.5,1575.83 1442.5,1576.17 1442.5,1576.5C 1441.17,1525.5 1440.5,1474.17 1440.5,1422.5C 1440.5,1371 1440.83,1319.67 1441.5,1268.5 Z"/></g>
<g><path style="opacity:1" fill="#010101" d="M 719.5,1340.5 C 746.346,1338.64 772.012,1343.14 796.5,1354C 836.211,1376.91 856.211,1411.41 856.5,1457.5C 857.418,1509.7 834.418,1546.86 787.5,1569C 759.127,1579.27 730.127,1581.27 700.5,1575C 650.346,1559.55 622.18,1525.72 616,1473.5C 612.979,1439.9 621.312,1409.57 641,1382.5C 661.85,1358.66 688.016,1344.66 719.5,1340.5 Z"/></g>
<g><path style="opacity:1" fill="#010101" d="M 983.5,1340.5 C 1013.61,1337.94 1041.94,1343.78 1068.5,1358C 1103.88,1381.92 1121.55,1415.42 1121.5,1458.5C 1121.7,1512.65 1097.03,1550.15 1047.5,1571C 1021.91,1578.92 995.914,1580.59 969.5,1576C 920.668,1562.91 891.501,1531.41 882,1481.5C 876.73,1446.17 884.063,1413.83 904,1384.5C 924.928,1359.79 951.428,1345.12 983.5,1340.5 Z"/></g>
<g><path style="opacity:1" fill="#282828" d="M 317.5,1345.5 C 294.242,1344.51 270.908,1344.18 247.5,1344.5C 247.5,1345.5 247.5,1346.5 247.5,1347.5C 246.566,1346.43 246.232,1345.1 246.5,1343.5C 270.524,1342.84 294.19,1343.51 317.5,1345.5 Z"/></g>
<g><path style="opacity:1" fill="#292929" d="M 464.5,1344.5 C 439.092,1344.18 413.759,1344.51 388.5,1345.5C 400.815,1344.17 413.482,1343.5 426.5,1343.5C 439.338,1343.5 452.004,1343.83 464.5,1344.5 Z"/></g>
<g><path style="opacity:1" fill="#282828" d="M 602.5,1344.5 C 580.092,1344.18 557.758,1344.51 535.5,1345.5C 546.313,1344.17 557.479,1343.5 569,1343.5C 580.338,1343.5 591.505,1343.83 602.5,1344.5 Z"/></g>
<g><path style="opacity:1" fill="#282828" d="M 1617.5,1344.5 C 1591.15,1343.84 1565.15,1344.51 1539.5,1346.5C 1538.6,1345.79 1538.26,1344.79 1538.5,1343.5C 1565.01,1343.17 1591.34,1343.5 1617.5,1344.5 Z"/></g>
<g><path style="opacity:1" fill="#282828" d="M 1797.5,1343.5 C 1772.93,1344.18 1748.26,1344.84 1723.5,1345.5C 1747.81,1343.51 1772.48,1342.84 1797.5,1343.5 Z"/></g>
<g><path style="opacity:1" fill="#010101" d="M 317.5,1345.5 C 328.144,1399.55 338.977,1453.55 350,1507.5C 363.157,1453.54 375.99,1399.54 388.5,1345.5C 413.759,1344.51 439.092,1344.18 464.5,1344.5C 477.66,1398.81 490.66,1453.14 503.5,1507.5C 514.329,1453.54 524.995,1399.54 535.5,1345.5C 557.758,1344.51 580.092,1344.18 602.5,1344.5C 581.857,1420.4 561.524,1496.4 541.5,1572.5C 540.596,1573.21 540.263,1574.21 540.5,1575.5C 514.167,1575.5 487.833,1575.5 461.5,1575.5C 450.122,1525.65 437.955,1475.99 425,1426.5C 412.194,1475.06 400.027,1523.72 388.5,1572.5C 387.596,1573.21 387.263,1574.21 387.5,1575.5C 361.167,1575.5 334.833,1575.5 308.5,1575.5C 288.562,1499.36 268.228,1423.36 247.5,1347.5C 247.5,1346.5 247.5,1345.5 247.5,1344.5C 270.908,1344.18 294.242,1344.51 317.5,1345.5 Z"/></g>
<g><path style="opacity:1" fill="#010101" d="M 1797.5,1343.5 C 1798.5,1343.5 1799.5,1343.5 1800.5,1343.5C 1751.71,1459.2 1702.71,1574.87 1653.5,1690.5C 1627.99,1690.83 1602.66,1690.5 1577.5,1689.5C 1595.69,1648.95 1613.69,1608.29 1631.5,1567.5C 1601.11,1493.72 1570.44,1420.05 1539.5,1346.5C 1565.15,1344.51 1591.15,1343.84 1617.5,1344.5C 1635.2,1392.1 1653.04,1439.76 1671,1487.5C 1688.61,1440.17 1706.11,1392.83 1723.5,1345.5C 1748.26,1344.84 1772.93,1344.18 1797.5,1343.5 Z"/></g>
<g><path style="opacity:1" fill="#fdfdfd" d="M 729.5,1401.5 C 760.631,1401.46 778.798,1416.8 784,1447.5C 786.008,1464.78 783.008,1481.12 775,1496.5C 763.184,1512.49 747.351,1519.32 727.5,1517C 704.336,1510.82 691.502,1495.65 689,1471.5C 686.68,1455.09 689.013,1439.43 696,1424.5C 703.805,1411.85 714.972,1404.18 729.5,1401.5 Z"/></g>
<g><path style="opacity:1" fill="#fcfcfc" d="M 989.5,1402.5 C 1024.14,1399.4 1043.97,1415.07 1049,1449.5C 1051.08,1468.03 1047.08,1485.03 1037,1500.5C 1019.88,1518.19 1000.04,1522.02 977.5,1512C 963.969,1502.79 956.136,1489.96 954,1473.5C 950.496,1455.52 953.163,1438.52 962,1422.5C 969.061,1412.74 978.228,1406.07 989.5,1402.5 Z"/></g>
<g><path style="opacity:1" fill="#fdfdfd" d="M 1257.5,1402.5 C 1289.8,1399.99 1309.97,1414.32 1318,1445.5C 1320.44,1461.94 1318.1,1477.6 1311,1492.5C 1296.13,1513.91 1275.96,1521.07 1250.5,1514C 1233.39,1506.21 1222.89,1493.05 1219,1474.5C 1214.46,1453.36 1218.8,1434.36 1232,1417.5C 1239.26,1410.29 1247.76,1405.29 1257.5,1402.5 Z"/></g>
<g><path style="opacity:1" fill="#6e6e6e" d="M 1317.5,1544.5 C 1317.56,1543.96 1317.89,1543.62 1318.5,1543.5C 1319.5,1554.15 1319.83,1564.81 1319.5,1575.5C 1318.83,1565.17 1318.17,1554.83 1317.5,1544.5 Z"/></g>
<g><path style="opacity:1" fill="#dadada" d="M 388.5,1572.5 C 388.5,1573.83 388.5,1575.17 388.5,1576.5C 361.661,1576.83 334.995,1576.5 308.5,1575.5C 334.833,1575.5 361.167,1575.5 387.5,1575.5C 387.263,1574.21 387.596,1573.21 388.5,1572.5 Z"/></g>
<g><path style="opacity:1" fill="#d8d8d8" d="M 541.5,1572.5 C 541.5,1573.83 541.5,1575.17 541.5,1576.5C 514.661,1576.83 487.995,1576.5 461.5,1575.5C 487.833,1575.5 514.167,1575.5 540.5,1575.5C 540.263,1574.21 540.596,1573.21 541.5,1572.5 Z"/></g>
<g><path style="opacity:1" fill="#0f0f0f" d="M 1437.5,1616.5 C 1441.4,1615.86 1444.73,1616.86 1447.5,1619.5C 1449.46,1625.59 1447.29,1629.25 1441,1630.5C 1435.14,1629.13 1433.14,1625.46 1435,1619.5C 1436.04,1618.63 1436.88,1617.63 1437.5,1616.5 Z"/></g>
<g><path style="opacity:1" fill="#080808" d="M 1420.5,1691.5 C 1416.83,1691.5 1413.17,1691.5 1409.5,1691.5C 1409.66,1689.14 1409.5,1686.81 1409,1684.5C 1399.03,1693.35 1388.2,1694.52 1376.5,1688C 1367.43,1679.47 1363.93,1668.97 1366,1656.5C 1370.95,1641.78 1381.12,1635.28 1396.5,1637C 1400.97,1638.4 1404.97,1640.57 1408.5,1643.5C 1408.56,1644.04 1408.89,1644.38 1409.5,1644.5C 1410.5,1636.19 1410.83,1627.86 1410.5,1619.5C 1413.83,1619.5 1417.17,1619.5 1420.5,1619.5C 1420.5,1643.5 1420.5,1667.5 1420.5,1691.5 Z"/></g>
<g><path style="opacity:1" fill="#5b5b5b" d="M 1420.5,1691.5 C 1420.5,1667.5 1420.5,1643.5 1420.5,1619.5C 1417.17,1619.5 1413.83,1619.5 1410.5,1619.5C 1410.83,1627.86 1410.5,1636.19 1409.5,1644.5C 1408.89,1644.38 1408.56,1644.04 1408.5,1643.5C 1409.49,1635.35 1409.83,1627.02 1409.5,1618.5C 1413.5,1618.5 1417.5,1618.5 1421.5,1618.5C 1421.83,1643.01 1421.5,1667.34 1420.5,1691.5 Z"/></g>
<g><path style="opacity:1" fill="#0b0b0b" d="M 1227.5,1636.5 C 1235.05,1635.54 1242.05,1637.04 1248.5,1641C 1249.88,1642.93 1251.38,1644.76 1253,1646.5C 1263.1,1634.88 1274.6,1633.38 1287.5,1642C 1290.93,1645.1 1293.1,1648.94 1294,1653.5C 1294.5,1666.16 1294.67,1678.83 1294.5,1691.5C 1290.83,1691.5 1287.17,1691.5 1283.5,1691.5C 1283.67,1680.16 1283.5,1668.83 1283,1657.5C 1281.55,1649.77 1276.89,1646.11 1269,1646.5C 1263.13,1646.43 1259.13,1649.1 1257,1654.5C 1256.5,1666.83 1256.33,1679.16 1256.5,1691.5C 1252.5,1691.5 1248.5,1691.5 1244.5,1691.5C 1244.67,1679.16 1244.5,1666.83 1244,1654.5C 1241.49,1648.65 1236.99,1645.99 1230.5,1646.5C 1225.04,1646.15 1221.21,1648.48 1219,1653.5C 1217.58,1666.11 1217.08,1678.77 1217.5,1691.5C 1213.83,1691.5 1210.17,1691.5 1206.5,1691.5C 1206.5,1673.5 1206.5,1655.5 1206.5,1637.5C 1210.17,1637.5 1213.83,1637.5 1217.5,1637.5C 1217.21,1639.29 1217.55,1640.95 1218.5,1642.5C 1221.39,1640.23 1224.39,1638.23 1227.5,1636.5 Z"/></g>
<g><path style="opacity:1" fill="#0b0b0b" d="M 1357.5,1668.5 C 1343.83,1668.5 1330.17,1668.5 1316.5,1668.5C 1316.23,1670.1 1316.57,1671.43 1317.5,1672.5C 1321.17,1681.62 1327.84,1684.78 1337.5,1682C 1340.47,1680.69 1342.81,1678.69 1344.5,1676C 1348.54,1675.17 1352.54,1675.34 1356.5,1676.5C 1348.71,1690.38 1337.04,1695.22 1321.5,1691C 1308.18,1683.86 1302.68,1672.7 1305,1657.5C 1313.12,1636.9 1327.29,1631.4 1347.5,1641C 1356.34,1648.35 1359.67,1657.52 1357.5,1668.5 Z"/></g>
<g><path style="opacity:1" fill="#010101" d="M 1435.5,1637.5 C 1439.17,1637.5 1442.83,1637.5 1446.5,1637.5C 1446.5,1655.5 1446.5,1673.5 1446.5,1691.5C 1442.83,1691.5 1439.17,1691.5 1435.5,1691.5C 1435.5,1673.5 1435.5,1655.5 1435.5,1637.5 Z"/></g>
<g><path style="opacity:1" fill="#0d0d0d" d="M 1476.5,1636.5 C 1486.09,1635.09 1494.26,1637.75 1501,1644.5C 1501.5,1642.19 1501.66,1639.86 1501.5,1637.5C 1505.5,1637.5 1509.5,1637.5 1513.5,1637.5C 1513.5,1655.5 1513.5,1673.5 1513.5,1691.5C 1509.5,1691.5 1505.5,1691.5 1501.5,1691.5C 1501.66,1689.14 1501.5,1686.81 1501,1684.5C 1490.99,1693.59 1480.16,1694.76 1468.5,1688C 1456.44,1676.17 1454.27,1662.67 1462,1647.5C 1465.95,1642.47 1470.78,1638.8 1476.5,1636.5 Z"/></g>
<g><path style="opacity:1" fill="#f6f6f6" d="M 1325.5,1646.5 C 1332.53,1645.35 1338.7,1647.02 1344,1651.5C 1345.71,1653.91 1346.54,1656.58 1346.5,1659.5C 1336.5,1659.5 1326.5,1659.5 1316.5,1659.5C 1317.55,1653.79 1320.55,1649.46 1325.5,1646.5 Z"/></g>
<g><path style="opacity:1" fill="#fafafa" d="M 1388.5,1646.5 C 1405.28,1646.46 1412.12,1654.8 1409,1671.5C 1403.45,1681.86 1395.28,1684.69 1384.5,1680C 1378.08,1673.85 1375.92,1666.35 1378,1657.5C 1380.36,1652.65 1383.86,1648.98 1388.5,1646.5 Z"/></g>
<g><path style="opacity:1" fill="#f9f9f9" d="M 1479.5,1646.5 C 1496.82,1645.99 1503.99,1654.32 1501,1671.5C 1495.54,1682.1 1487.37,1684.93 1476.5,1680C 1469.82,1673.94 1467.65,1666.44 1470,1657.5C 1472.31,1653.02 1475.48,1649.36 1479.5,1646.5 Z"/></g>
<g><path style="opacity:1" fill="#b3b3b3" d="M 1357.5,1668.5 C 1344.34,1669.5 1331.01,1669.83 1317.5,1669.5C 1317.5,1670.5 1317.5,1671.5 1317.5,1672.5C 1316.57,1671.43 1316.23,1670.1 1316.5,1668.5C 1330.17,1668.5 1343.83,1668.5 1357.5,1668.5 Z"/></g>
<g><path style="opacity:1" fill="#252525" d="M 1577.5,1689.5 C 1602.66,1690.5 1627.99,1690.83 1653.5,1690.5C 1628,1691.83 1602.33,1691.83 1576.5,1690.5C 1576.62,1689.89 1576.96,1689.56 1577.5,1689.5 Z"/></g>
</svg>
